<?xml version="1.0" encoding="utf-8"?>
<!-- Generator: Adobe Illustrator 21.1.0, SVG Export Plug-In . SVG Version: 6.00 Build 0)  -->
<svg version="1.1" id="Layer_1" xmlns="http://www.w3.org/2000/svg" xmlns:xlink="http://www.w3.org/1999/xlink" x="0px" y="0px"
	 width="16px" height="11.2px" viewBox="0 0 16 11.2" style="enable-background:new 0 0 16 11.2;" xml:space="preserve">
<style type="text/css">
	.st0{fill:#FFFFFF;}
</style>
<g>
	<g>
		<path class="st0" d="M10.8,11.1c-0.2,0.2-0.6,0.2-0.8,0c-0.2-0.2-0.2-0.6,0-0.8l4.1-4.1H0.6C0.3,6.2,0,5.9,0,5.6
			c0-0.3,0.3-0.6,0.6-0.6h13.5L10,1c-0.2-0.2-0.2-0.6,0-0.8c0.2-0.2,0.6-0.2,0.8,0l5.1,5.1c0.2,0.2,0.2,0.6,0,0.8L10.8,11.1z
			 M10.8,11.1"/>
	</g>
</g>
</svg>
