<?xml version="1.0" encoding="utf-8"?>
<!-- Generator: Adobe Illustrator 21.1.0, SVG Export Plug-In . SVG Version: 6.00 Build 0)  -->
<svg version="1.1" id="Layer_1" xmlns="http://www.w3.org/2000/svg" xmlns:xlink="http://www.w3.org/1999/xlink" x="0px" y="0px"
	 width="23px" height="15.8px" viewBox="0 0 23 15.8" style="enable-background:new 0 0 23 15.8;" xml:space="preserve">
<style type="text/css">
	.st0{fill:#ffffff;}
</style>
<g>
	<g>
		<path class="st0" d="M22.7,7.2l-6.8-6.8c-0.4-0.4-1.1-0.4-1.5,0c-0.4,0.4-0.4,1.1,0,1.5l5,5H1.1C0.5,6.8,0,7.3,0,7.9
			C0,8.5,0.5,9,1.1,9h18.3l-5,5c-0.4,0.4-0.4,1.1,0,1.5c0.2,0.2,0.5,0.3,0.8,0.3c0.3,0,0.5-0.1,0.8-0.3l6.8-6.8
			C23.1,8.3,23.1,7.6,22.7,7.2L22.7,7.2z M22.7,7.2"/>
	</g>
</g>
</svg>
