<?xml version="1.0" encoding="utf-8"?>
<!-- Generator: Adobe Illustrator 21.1.0, SVG Export Plug-In . SVG Version: 6.00 Build 0)  -->
<svg version="1.1" id="Layer_1" xmlns="http://www.w3.org/2000/svg" xmlns:xlink="http://www.w3.org/1999/xlink" x="0px" y="0px"
	 width="20px" height="20.7px" viewBox="0 0 20 20.7" style="enable-background:new 0 0 20 20.7;" xml:space="preserve">
<style type="text/css">
	.st0{fill:#F99D29;}
</style>
<path class="st0" d="M11.8,10.8c0.1-0.1,0.2-0.3,0.2-0.5c0-0.2-0.1-0.3-0.2-0.5L2.2,0.2C2.1,0.1,1.9,0,1.7,0C1.5,0,1.4,0.1,1.2,0.2
	l-1,1C0.1,1.4,0,1.5,0,1.7c0,0.2,0.1,0.3,0.2,0.5l8.1,8.1l-8.1,8.1C0.1,18.6,0,18.8,0,18.9c0,0.2,0.1,0.3,0.2,0.5l1,1
	c0.1,0.1,0.3,0.2,0.5,0.2c0.2,0,0.3-0.1,0.5-0.2L11.8,10.8z M11.8,10.8"/>
<path class="st0" d="M8.2,1.2C8,1.4,7.9,1.5,7.9,1.7c0,0.2,0.1,0.3,0.2,0.5l8.1,8.1l-8.1,8.1c-0.1,0.1-0.2,0.3-0.2,0.5
	c0,0.2,0.1,0.3,0.2,0.5l1,1c0.1,0.1,0.3,0.2,0.5,0.2c0.2,0,0.3-0.1,0.5-0.2l9.6-9.6c0.1-0.1,0.2-0.3,0.2-0.5c0-0.2-0.1-0.3-0.2-0.5
	l-9.6-9.6C10,0.1,9.8,0,9.7,0C9.5,0,9.3,0.1,9.2,0.2L8.2,1.2z M8.2,1.2"/>
</svg>
