<?xml version="1.0" encoding="utf-8"?>
<!-- Generator: Adobe Illustrator 21.1.0, SVG Export Plug-In . SVG Version: 6.00 Build 0)  -->
<svg version="1.1" id="Layer_1" xmlns="http://www.w3.org/2000/svg" xmlns:xlink="http://www.w3.org/1999/xlink" x="0px" y="0px"
	 width="415px" height="145.2px" viewBox="0 0 415 145.2" style="enable-background:new 0 0 415 145.2;" xml:space="preserve">
<style type="text/css">
	.st0{fill-rule:evenodd;clip-rule:evenodd;fill:#FF9E25;}
	.st1{fill:#FF9E25;}
	.st2{fill:#FFFFFF;}
</style>
<path class="st0" d="M95.9,78.4c-0.2,0.3-0.6,0.5-0.7,1c-0.1,0.2,0.1,0.2,0.1,0.2c0,0.1,0,0.1,0.1,0.1c0.7-0.4,1.4-0.7,2.2-1.1
	c0.3-0.2,0.5-0.4,0.8-0.6c0,0,0.1-0.1,0.1-0.1c0.2-0.2,0.3-0.5,0.2-0.7C98.5,76.9,98.2,77,98,77c-0.2,0.1-0.5,0.2-0.7,0.3
	c-0.4,0.2-0.8,0.4-1.1,0.7C96.1,78.1,96,78.3,95.9,78.4z"/>
<path class="st0" d="M98.2,130.2c0.1,0.1,0.2,0.2,0.3,0.4c0-0.2,0.1-0.4,0.1-0.6c0.1-0.1,0.1-0.2,0.2-0.3c0.1,0.2-0.1,0.3,0,0.4
	c0,0.1,0,0.3,0.2,0.2c0.4-0.3,0.8-0.3,1.3-0.4c0.3,0,0.5-0.1,0.6-0.3c0.5-0.4,0.4-0.9,0-1.2c-0.2-0.1-0.4-0.1-0.6-0.1c0,0,0,0,0,0
	c-0.3,0-0.5,0.2-0.7,0.4c-0.3,0.3-0.7,0.4-1.1,0.5C98,129.4,97.9,129.8,98.2,130.2z"/>
<path class="st0" d="M106.7,138.6c-0.4,0.1-0.5,0.5-0.3,0.8c0.1,0,0.2-0.1,0.2-0.1c-0.1,0-0.1,0.1-0.1,0.2c0.2,0,0.4-0.1,0.5-0.2
	c0.2-0.2,0-0.3,0-0.5C107,138.6,106.9,138.6,106.7,138.6z"/>
<path class="st0" d="M96.5,118.9c-0.4,0.1-0.4,0.3-0.4,0.6c0.2,0.7,0.6,0.9,1.2,0.6c0.2-0.1,0.3-0.3,0.3-0.6
	C97.5,119,97.1,118.8,96.5,118.9z"/>
<path class="st0" d="M97.7,130.3c0,0.1,0.1,0.1,0.1,0c-0.2-0.8,0.1-1.2,0.8-1.4c0.1,0,0.2,0,0.3-0.1c0.2-0.1,0.5,0,0.5-0.3
	c0.3-0.2,0.5-0.4,0.9-0.5c0.3,0,0.6,0,0.9,0.1c0.1,0,0.1-0.1,0-0.1c-0.3-0.1-0.6-0.2-1-0.1c-0.5-0.1-0.6,0.3-0.9,0.5
	c-0.2,0-0.4,0.1-0.6,0.2C97.8,128.9,97.5,129.5,97.7,130.3z"/>
<path class="st0" d="M101.2,129.7c-0.1,0.2-0.3,0.3-0.4,0.5C100.9,130,101.2,130,101.2,129.7c0.5-0.3,0.5-0.8,0.2-1.3
	c0-0.1-0.1-0.1-0.1,0C101.5,128.8,101.5,129.1,101.2,129.7z"/>
<path class="st0" d="M96.2,118.6c0.4-0.1,0.8-0.1,1.2,0.1l0,0c0.3,0.2,0.5,0.4,0.6,0.7c0,0.4-0.2,0.7-0.5,0.9
	c0.4-0.2,0.6-0.4,0.6-0.9c-0.1-0.3-0.3-0.6-0.6-0.8C97.1,118.4,96.6,118.4,96.2,118.6C96.2,118.6,96.2,118.6,96.2,118.6z"/>
<path class="st0" d="M106.2,139.7C106.2,139.8,106.3,139.8,106.2,139.7C106.3,139.8,106.3,139.7,106.2,139.7
	c-0.2-0.3-0.3-0.7-0.2-1.1C105.7,139.1,106,139.4,106.2,139.7z"/>
<path class="st0" d="M96.7,77.4C96.7,77.4,96.7,77.4,96.7,77.4c-0.3,0.2-0.6,0.4-0.9,0.6c0,0,0,0,0,0C96.2,77.8,96.4,77.6,96.7,77.4
	z"/>
<path class="st0" d="M102.4,79.6c0,0.3,0.3,0.3,0.5,0.3c0.2,0,0.5,0,0.6-0.2c0.1-0.2,0.2-0.4,0.1-0.5c-0.2-0.2-0.4-0.3-0.7-0.2
	C102.5,79.1,102.3,79.3,102.4,79.6z"/>
<path class="st0" d="M107.3,138.5c-0.1-0.3-0.3-0.4-0.5-0.2C106.9,138.3,107.1,138.4,107.3,138.5z"/>
<path class="st0" d="M102.9,80.2c-0.2,0-0.3,0-0.5,0C102.7,80.3,102.7,80.3,102.9,80.2z"/>
<path class="st0" d="M101.9,79.8c0,0.1,0.1,0.1,0.1,0c-0.1-0.2,0-0.4,0-0.5c0.1-0.1,0.1-0.3,0.2-0.4c0,0,0,0-0.1-0.1
	c-0.2,0.1-0.3,0.3-0.3,0.5C101.9,79.4,101.8,79.6,101.9,79.8z"/>
<path class="st0" d="M95.9,118.8c-0.1,0.1-0.1,0.2,0,0.3c0.1-0.1,0.1-0.3,0.2-0.4C96.1,118.7,96,118.7,95.9,118.8z"/>
<g>
	<ellipse transform="matrix(0.7674 -0.6412 0.6412 0.7674 -6.12 126.1685)" class="st1" cx="170.8" cy="71.5" rx="67.5" ry="67.5"/>
	<path class="st0" d="M168.7,141.8c0.1,0.8,1,1.8,1.6,1.7c0.8-0.1,1.4,0.1,1.9,0.5c0.1,0.1,0.2,0.1,0.3,0.1c0.5,0.1,0.9-0.3,1.1-0.6
		c0.2-0.3,0.3-0.9-0.2-1.1c-0.7-0.3-1.3-0.8-1.5-1.4c-0.2-0.2-0.2-0.3-0.3-0.4c-0.5-0.4-1-0.9-1.8-0.7
		C169.3,140.1,168.6,141.2,168.7,141.8z"/>
	<path class="st0" d="M187.3,32.3c0.2,0.2,0.6,0.1,0.9,0c0.1,0,0.2-0.1,0.4-0.1c0.9-0.2,1.5-1,2.4-1.3c1.4-0.5,2-1.8,2.7-3.1
		c-0.9-0.1-1.7-0.1-2.4,0.5c-0.3,0.3-0.7,0.6-1.1,0.8c-0.2,0.1-0.4,0.2-0.7,0.3c-1.1,0.2-1.8,1-2.2,1.9
		C187.1,31.6,187,32,187.3,32.3z"/>
	<path class="st0" d="M174.8,83.4c0.6,0.7,1.6,0.9,2.3,0.4c0.7-0.5,0.9-1.7,0.5-2.2c-0.5-0.7-2-1-2.6-0.6
		C174.4,81.5,174.2,82.7,174.8,83.4z"/>
	<path class="st0" d="M109.3,27.4c0.3,0.7,0.9,1.1,1.5,1.5c0.1,0.1,0.3,0.1,0.4,0.1c1-0.2,1.3-0.7,1.2-1.7c0-0.4-0.1-0.9-0.5-1.2
		c-0.4-0.3-1.9-0.1-2.4,0.3C109.1,26.6,109.1,27,109.3,27.4z"/>
	<path class="st0" d="M179.6,104.5c0.1,0,0.3,0.2,0.4,0.2c0.4,0,0.8,0.4,1.2,0.2c0.7-0.4,0.9-1.6,0.5-2.1c-0.7-0.9-1.3-1.1-2.1-0.4
		c-0.1,0.1-0.2,0.2-0.3,0.3C178.6,103.2,178.5,104.1,179.6,104.5z"/>
	<path class="st0" d="M166.4,78.4c0.1,0.1,0.2,0.2,0.3,0.2c0.1,0,0.3,0,0.4,0c0,0.2,0.3,0,0.3,0.2c0.2,0.2,0.4,0.4,0,0.6
		c0.3,0.1,0.5-0.1,0.8-0.2c-0.1-0.9,0.2-1.8-0.3-2.7c-0.1,0.1-0.1,0.1-0.1,0.2c-0.1,0.2-0.1,0.6-0.5,0.4c-0.2-0.1-0.5-0.2-0.7,0.2
		C166.6,77.7,166.4,78,166.4,78.4z"/>
	<path class="st0" d="M159.1,34c0.1,0.1,0.2,0.2,0.3,0.1c0.6-0.6,1.5-0.7,1.9-1.5c0.2-0.3,0.2-0.6,0.1-0.8c-0.2-0.2-0.6-0.2-0.9,0
		c-0.8,0.2-1.2,0.9-1.6,1.5C158.8,33.5,159,33.8,159.1,34z"/>
	<path class="st0" d="M64,66.7c0.1-0.1,0.2,0.2,0.4,0c-0.2-0.2-0.3-0.5-0.6-0.7c-0.5,0.6-0.4,1.3-0.7,2c-0.4,0.8,0,1.2,0.8,1
		c0,0,0.1-0.1,0.1-0.1C64.4,68.2,64.3,67.4,64,66.7z"/>
	<path class="st0" d="M59,74.2c0,0.3,0.3,0.3,0.6,0.4c0.4,0,0.7,0,1-0.2c0.6-0.3,1.2-0.6,1.8-0.9c-0.2-0.1-0.4-0.3-0.6-0.4
		c-0.1-0.1-0.2-0.1-0.3,0c-0.4,0-0.7-0.1-1.1,0c-0.1,0.1-0.1,0.1-0.2,0.2c-0.2,0.1-0.3,0.3-0.6,0.3c-0.1,0.1-0.1,0.1-0.2,0.2
		C59.2,73.7,59,73.9,59,74.2z"/>
	<path class="st0" d="M192.3,109.6c0.3,0.4,1.1,0.6,1.4,0.3c0.3-0.2,0.4-1,0.1-1.4c-0.3-0.4-0.9-0.5-1.4-0.2
		C192,108.8,192,109.2,192.3,109.6z"/>
	<path class="st0" d="M166.5,45c0,0.6,0.4,0.2,0.6,0.2c0.6-0.1,0.9-0.6,1.3-0.9c0-0.1-0.1-0.1-0.2-0.2c0.1,0.1,0.2,0.1,0.3,0
		c-0.5-0.5-1-0.3-1.5,0.1c-0.3,0.3-0.5,0.7-0.8,1C166.3,45.2,166.5,44.9,166.5,45z"/>
	<path class="st0" d="M61.4,100.2c0.8,0.2,1.4-0.2,2.1-0.7c-0.7-0.1-1.2-0.1-1.8,0c-0.3,0-0.4,0.2-0.5,0.4
		C61.2,100,61.3,100.1,61.4,100.2z"/>
	<path class="st0" d="M86,110.3c-0.1,0-0.2,0-0.3,0.1c-0.2,0.1-0.3,0.1-0.5,0.2c-0.1,0-0.3,0.1-0.4,0.2c-0.2,0.1-0.4,0.3-0.6,0.4
		c-0.4,0.3-0.8,0.6-1.2,0.9c0,0,0,0.1-0.1,0.1c0.1,0.1,0.2,0.1,0.4,0c0.7-0.4,1.4-0.8,2.1-1.3C85.7,110.7,86,110.6,86,110.3z"/>
	<path class="st0" d="M167.6,73.5c0.2,0.2,0.4,0.3,0.5-0.1c0.2-0.6,0.3-1.2-0.3-1.7c-0.1,0.1,0.1,0.4-0.2,0.3
		c-0.1,0-0.2-0.1-0.2,0.1C167.4,72.6,167.2,73.1,167.6,73.5z"/>
	<path class="st0" d="M175,95.1c0.2-0.2,0.4-0.4,0.7-0.5c0.2-0.1,0.3-0.3,0.2-0.5c-0.2-0.2-0.4-0.1-0.5,0c-0.4,0.3-0.8,0.6-1,1.1
		C174.5,95.1,174.8,95.1,175,95.1z"/>
	<path class="st0" d="M10.9,52.5c0.1,0,0.1-0.1,0.2-0.1c0.1-0.2,0.2-0.3,0.3-0.5c0-0.5-0.2-0.6-0.6-0.5c-0.1,0.1-0.2,0.1-0.3,0.2
		c0,0.1-0.1,0.2-0.1,0.3C10.3,52.2,10.1,52.7,10.9,52.5z"/>
	<path class="st0" d="M9.2,87.8c0-0.4-0.3-0.5-0.6-0.5c-0.5-0.2-0.7,0.2-0.9,0.5c-0.1,0.3-0.1,0.5,0.1,0.7c0,0.3,0.1,0.2,0.3,0.1
		l0,0l0,0c0.2-0.1,0.4-0.1,0.6-0.2c0.2-0.1,0.3-0.3,0.5-0.4C9.1,88,9.3,87.9,9.2,87.8z"/>
	<path class="st0" d="M193.7,107.8c-0.4-0.2-0.7-0.4-1.1-0.1c-0.3,0-0.6,0.1-0.6,0.5c0.2-0.1,0.3-0.2,0.5-0.4
		C192.9,107.8,193.3,107.8,193.7,107.8z"/>
	<path class="st0" d="M183.4,107c0,0.5,0.6,1.3,1,1.4c0.8,0.2,1.3,0.1,1.8-0.5c0.3-0.3,0.4-0.6,0.3-1c0.1-0.7-0.5-0.9-0.9-1.2
		c-0.4-0.2-0.9-0.3-1.4-0.2c-0.3,0-0.5,0.1-0.5,0.4C183.4,106.2,183.4,106.6,183.4,107z"/>
	<path class="st0" d="M193.7,110.4c-0.4,0-0.7-0.1-1.1-0.1C193.3,110.6,193.4,110.6,193.7,110.4z"/>
	<path class="st0" d="M170.6,133.8c-0.2-0.2-0.4-0.1-0.4,0.2c0,0.2,0,0.4,0.1,0.5c-0.1,0.5,0.1,0.8,0.6,0.9c0.2,0.3,0.5,0.4,0.7,0.7
		c0-0.4-0.3-0.6-0.7-0.7c-0.2-0.3-0.5-0.6-0.5-1C170.5,134.1,170.7,134,170.6,133.8z"/>
	<path class="st0" d="M194.4,109.6c0.1,0.1,0.1,0.1,0.2,0c0-0.3,0-0.6-0.2-0.8c0,0,0,0-0.1,0c0,0,0,0,0,0.1
		C194.3,109.1,194.3,109.4,194.4,109.6z"/>
	<path class="st0" d="M191.6,109c0.2-0.3,0.3-0.5,0.3-0.8C191.8,108.3,191.6,108.5,191.6,109z"/>
	<path class="st0" d="M79.2,101.1c-0.3-0.1-0.3-0.3-0.3-0.4c0-0.5-0.4-0.7-0.8-0.8c0,0-0.1,0-0.1,0.1c-0.1,0.1-0.2,0.1-0.4,0.2
		c-0.3,0.1-0.6,0.1-0.9,0.2c-0.4,0-0.7,0.2-0.9,0.4c-0.1,0.1-0.2,0.2,0,0.4l0,0c0.1,0.2,0.2,0.4,0.2,0.6c0.2,1,1.9,1.8,2.9,1.4
		c0.4-0.2,0.8-0.5,0.7-1C79.5,101.6,79.6,101.2,79.2,101.1z"/>
	<path class="st0" d="M102.2,111.4c-0.2-0.1-0.5-0.2-0.7-0.2c-0.5-0.1-0.8,0.2-1.1,0.6c-0.4,0.8-0.4,1.4,0,2.2
		c0.2,0.3,0.4,0.6,0.8,0.5c0.2-0.1,0.3-0.1,0.5-0.1c0.5-0.1,0.9-0.3,1.1-0.9c0.1-0.1,0.1-0.2,0.2-0.3c0.1-0.2,0.2-0.5,0.4-0.6
		c0.3-0.1,0.6-0.1,0.4-0.5c-0.1,0-0.1,0-0.2,0C103.3,111.4,102.8,111.4,102.2,111.4z"/>
	<path class="st0" d="M102.4,108.4c-0.1-0.3-0.4-0.3-0.6-0.3c-0.3-0.1-0.2,0.3-0.3,0.5c0,0.1-0.1,0.2-0.2,0.3
		c-0.2,0.3,0,0.3,0.2,0.3c0.2,0.1,0.4,0,0.7-0.2C102.3,108.9,102.4,108.7,102.4,108.4z"/>
	<path class="st0" d="M102,106.2c-0.2-0.2-0.5,0-0.7,0.2c-0.1,0.1-0.4,0.1-0.2,0.4c0.3,0.3,0.4,0,0.6-0.1
		C101.8,106.5,102.2,106.4,102,106.2z"/>
	<path class="st0" d="M104.6,107.9c0.2,0.3,0.4,0.5,0.6,0.8C105,108.4,104.9,108,104.6,107.9z"/>
	<path class="st0" d="M69.1,13.5c0,0.8,0.4,1.2,1.1,1.4c0.1,0.1,0.3,0.2,0.4,0.3c1,0.8,1.9,1.7,3.2,2.1c0.5,0.4,1.1,0.8,1.6,1.2
		c0.6,0.4,1,1,1.8,1.1c1.1,0.3,2.1,0.9,2.8,1.9c0.1-0.2-0.2-0.3-0.1-0.4c0.3,0.1,0.3,0.5,0.7,0.6c0.7,0.6,1.4,1.2,2.1,1.8
		c0.6,0.3,0.9,0.9,1.5,1.2c0.8,0.3,1.6,0.7,2.4,1c0.5,0.5,1,0.7,1.7,0.8c0.9,0.1,1.3,0.6,1.6,1.4c0,0-0.1-0.1-0.1-0.1
		c-0.1,0-0.1,0-0.1,0.1c0.3,0.5,0.6,1.1,1.1,1.4c0.6,0.4,1,0.9,1.4,1.4c0.7,1,1.5,1.9,2.9,1.9c0.3,0,0.8,0.1,1.1,0.4
		c0.1,0.1,0.2,0,0.2-0.1c0.3,0.5,0.9,0.5,1.4,0.7c0.2,0.2,0.4,0.3,0.6,0.5c0.3,0.4,0.5,0.9,1,1.2c0,0,0.1,0,0.1,0.1
		c0.2,0.3,0.6,0.4,1,0.4c0.6,0.1,1,0.3,1.4,0.7c0.2,0.2,0.4,0.5,0.5,0.7c0.1-0.2-0.2-0.3-0.1-0.5c0.1,0.1,0.2,0.2,0.3,0.4
		c0.4,0.9,1.2,1.4,1.6,2.2c0.1,0.1,0.1,0.1,0.2,0.2c-0.1,0.6-0.5,0.8-1.1,0.7c-1-0.2-2.1-0.5-3.2-0.4c-1.3-0.2-2.6,0-3.8-0.4
		c0,0,0,0,0,0c-0.1-0.1-0.1-0.1-0.2-0.1c-0.6-0.1-1.3-0.2-1.9-0.2c-0.2-0.1-0.4-0.1-0.6,0c-0.2-0.1-0.5-0.1-0.7-0.2
		c-0.1-0.1-0.2-0.1-0.3-0.1c-0.9-0.3-1.6-1-2.2-1.7c0.1,0.1,0.2,0.3,0.3,0.5c-0.4-0.2-0.7-0.3-1-0.5l0,0c-0.1-0.1-0.2-0.2-0.2-0.3
		c-0.3-0.3-0.1-0.9-0.7-1.1c-0.2-0.1-0.4-0.3-0.5-0.4c-0.2-0.3-0.6-0.5-0.9-0.6c-0.4-0.2-0.9-0.3-1.3-0.1h0c-0.4,0-0.5,0.3-0.5,0.7
		c0,0.2,0.1,0.4-0.2,0.2c0,0-0.1-0.1-0.1-0.1c0,0-0.1-0.1-0.1,0c0,0.2,0.1,0.3,0,0.5c-0.4-0.3-0.9-0.4-1.4-0.3c-0.2,0-0.4,0-0.6,0.1
		c-1.2,0.1-1.5,0.6-1.5,1.9c-0.1,0.3,0.1,0.5,0.3,0.7c0.4,0.5,0.7,1.1,1.4,1.3l0,0c0.1,0.1,0.3,0.1,0.3,0.2c0.6,0.2,1.2,0.2,1.8,0.2
		c0.7,0,1.4,0.1,2,0.7c0.6,0.2,0.8,0.7,1.2,1.1c0.1,0.2,0.2,0.3,0.5,0.3c1.2-0.1,2.5-0.1,3.7,0c0.5,0.1,0.9,0.3,1.4,0.5
		c0.4,0.2,0.8,0.5,1.3,0.6c0.4,0.1,0.5,0.7,1,0.5c0.4,0.7,1.2,1,1.5,1.8c0.4,1.1,0.1,1.2-0.9,1.3l0,0l0,0c-0.9,0-0.9,0.1-0.8,0.9
		c0,0.3,0.1,0.6,0.2,0.9c0.1,0.6-0.1,0.9-0.7,0.8c-0.4,0-0.8,0-1.1,0.1c-0.1,0.2-0.3-0.1-0.4,0.1c0.2,0.1-0.1,0.4,0.2,0.6
		c0.8,0.3,1.5,0.8,2.4,1c0.2,0.1,0.5,0.1,0.7,0.3c0.3,0,0.5,0.1,0.7,0.3c0.3,0,0.6,0.3,1,0.2c0.1,0,0.2,0.1,0.3,0c0.1,0,0.2,0,0.3,0
		c0.5,0.2,1,0,1.5,0.2c0.1,0,0.2,0.1,0.3,0.1c0.1,0.1,0.2,0.3,0.4,0.3c0.2,0.1,0.3,0.3,0.6,0.3c0.1-0.1,0.2-0.1,0.3-0.2
		c0.2,0.1,0.2,0.1,0.1,0.3c-0.2,0.2,0,0.1,0.1,0.1c0.1,0,0.2,0.1,0.3,0.1c-0.1,0.2-0.1,0.4-0.1,0.6c0,0.6-0.4,0.8-0.8,1.1
		c-0.1,0.2-0.4,0.2-0.5,0.5c-0.3,0.4-0.3,0.9-0.6,1.3c0,0.2-0.2,0.4-0.4,0.5c-0.3,0-0.6,0.1-0.9,0.1c-0.3,0.1-0.6,0-0.9-0.1
		c-0.1,0-0.1,0-0.2,0.1c-0.1-0.1-0.2-0.1-0.3,0c-0.1,0-0.2,0-0.3,0c-0.5,0-1,0.1-1.4-0.3c-0.1,0.1-0.2,0.2-0.3,0.1c0,0,0,0,0,0
		c-0.1-0.2-0.3-0.1-0.5-0.2c-0.3,0-0.6-0.1-0.9-0.1c0,0,0,0,0,0c0,0,0,0,0,0c-0.5-0.3-1.2-0.2-1.7-0.4c-0.3,0.1-0.7,0-1,0.1
		c-0.8,0.2-1.6-0.2-2.3-0.4c-0.3-0.1-0.7-0.1-1-0.1c-0.3-0.1-0.5-0.1-0.8,0c0,0,0,0,0,0c-0.3,0-0.4,0.2-0.6,0.4
		c-0.4,0.6,0,0.8,0.5,1c0.3,0.1,0.5,0.1,0.8,0.1c0.8,0,1.6-0.3,2.3-0.4c0.1-0.1-0.2-0.2-0.1-0.3c0,0.1,0.1,0.3,0.3,0.3
		c0.3,0.1,0.5,0.4,0.8,0.4c0.7,0.6,1.7,0.9,2,2c0.1,0.5,0.6,0.4,0.8,0.1c0.4-0.6,0.9-0.8,1.6-0.6c0.3,0.4,0.9,0.3,1.1,0.7
		C98,60,98.4,60,99,59.9c0.5,0,1-0.1,1.5,0.2c0.1,0.3,0.4,0.3,0.6,0.4c-0.1,0.2-0.4,0.2-0.3,0.5c0.2,0,0.3-0.1,0.4-0.2
		c0.3-0.2,0.3,0.2,0.5,0.2c0.1,0-0.1,0.1-0.2,0.2c-0.3,0-0.1,0.2-0.2,0.3c0,0.1,0,0.2-0.1,0.3c-0.3,0.2-0.7,0.3-1.1,0.3
		c-1,0-1.1,0.3-0.8,1.1c0.2,0.5,0.2,0.9,0,1.3c-0.6,1.1-1.8,1.5-2.9,1.9c-0.5,0.1-1,0.1-1.5,0.1c-0.4,0-0.9-0.2-1.3,0c0,0,0,0,0,0
		c0,0,0,0,0,0l0,0c-0.3-0.1-0.5,0-0.7,0.1c0,0,0,0,0,0c0,0,0,0,0,0l0,0l0,0c-0.2-0.1-0.4-0.1-0.6,0l0,0c-0.2-0.1-0.3-0.1-0.5-0.1
		c-0.6-0.2-1.2,0-1.8-0.1c-0.1,0-0.2-0.4-0.3-0.1c-0.1,0.3-0.3,0.2-0.4,0.3c-0.3,0.2-0.7,0.2-0.8,0.6c0,0,0.2,0,0.1,0.1
		c-0.1,0.2-0.4,0-0.5,0.2c-0.2,0-0.4-0.1-0.6-0.2c0.2,0.3-0.1,0.3-0.1,0.5c-0.4-0.5-0.7-0.9-1.3-1.3c-0.3-0.2-0.6-0.5-0.9-0.3
		c-0.4,0.2-0.6,0.6-0.4,1.1c-0.2,0-0.4-0.1-0.6,0c-0.2,0-0.4,0-0.6,0.1c-0.1,0-0.2,0-0.3,0c-0.5-0.3-1.1-0.5-1.6-0.8
		c-0.4-0.3-0.9-0.3-1.4-0.5c-0.4-0.2-0.7-0.4-1.1-0.2c-0.3-0.1-0.6,0-0.8,0.2c-1.4,0.3-2.9,0.5-4,1.6c-0.8,0.3-0.9,0.3-0.7,1.2
		c0.2,0.2,0.3,0.4,0.5,0.6c0.2,0.1,0.4,0.2,0.6,0.2c0.3,0.1,0.6,0,0.7-0.3c0,0,0-0.1,0-0.1c0.9-0.2,1.8-0.2,2.7-0.2
		c0.4,0,0.7,0,1.1-0.1c0,0.2,0.3,0.3,0.3,0.3c-0.2,0.4-0.2,0.9-0.4,1.3l0,0c-0.1,0-0.1,0-0.2,0c-0.3-0.2-0.6,0.1-0.9-0.1
		c0,0,0-0.1,0-0.1c-0.7-0.3-1.4-0.1-1.7,0.6c-0.2,0.4-0.4,0.9-0.6,1.3c-0.3,0.3-0.3,0.7,0,1c0.3,0.3,0.7,0.3,1.1,0.5
		c0.2,0,0.4,0.1,0.7,0.1c0.9,0.1,1.1,0.4,1.1,1.2c0,0,0,0,0,0c-0.4-0.3-0.8-0.1-1.2,0.1c-0.1,0,0.1,0.2-0.1,0.3
		c-0.2-0.4-0.6-0.1-0.9-0.2c-0.9-0.2-1.7-0.2-2.6,0c-0.4,0.2-0.9-0.1-1.4,0.1c-0.3,0-0.6,0-0.9-0.1c-0.2-0.1-0.5,0.2-0.7,0.1
		c-0.4,0-0.7,0-1.1,0c-1-0.1-1.9-0.2-2.9-0.2c-0.3,0-0.5-0.1-0.8,0c-0.6-0.1-1,0.3-1.6,0.4c-0.3-0.1-0.5,0.1-0.7,0.2
		c-0.3,0.2-0.5,0.5-0.4,0.9c0.1,0.3,0.4,0.2,0.6,0.2c0.8,0,1.7,0,2.5-0.1c1.3-0.1,2.6-0.2,3.9-0.1c1,0,2,0.3,3,0.2
		c0.1,0,0.2,0,0.3,0c0,0,0.1,0.1,0.1,0.1c0.1,0.1,0.2,0.3,0.2,0.5c0.1,0.2,0.1,0.3,0.2,0.5l0,0l0,0c-0.3,0.2-0.6,0.5-0.9,0.7l0,0
		c-0.1,0.1-0.1,0.2,0,0.3c0.2,0.3,0.3,0.5,0.8,0.5c1,0,2,0.4,3.1-0.1l0,0c0.2,0,0.4-0.1,0.5-0.1c0.6-0.1,1.1,0.2,1.5,0.6
		c0-0.1-0.1-0.2,0-0.3c0.3,0.2,0.3,0.6,0.7,0.7c1.2,0.3,2.3,0.5,3.5,0.6c0.1,0,0.3-0.1,0.4-0.1c0.1,0,0.2-0.1,0.2-0.1
		c0.5-0.2,0.9-0.6,1.3-1.1l0,0c0.1-0.1,0.1-0.1,0.2-0.2c0.3-0.4,1-0.5,1.6-0.2c0.5,0.2,0.7,0.8,0.7,1.5c0,0.5-0.3,0.6-0.6,0.7
		c0,0-0.1,0-0.1,0c-0.1,0-0.1,0-0.2,0c-1,0.1-1.4,0.6-1.4,1.6c-0.1,0.3-0.3-0.3-0.4,0c-0.1,0.4-0.3,0.3-0.6,0.3
		c-0.4-0.1-0.9,0-1.3,0.1c-0.2,0-0.4,0-0.6,0.2c0.6,0.1,0.9,0.7,1.5,0.6c0.1-0.2,0.3,0.1,0.4,0c0.4,0.2,0.9,0,1.3,0.1
		c0.3,0.1,0.5,0.1,0.8,0.2c0.2,0,0.3,0.2,0.6,0c0.5-0.3,1-0.3,1.5-0.4c0,0,0,0,0,0c0.2,0.2,0.4,0.2,0.6,0.2c0.1,0,0.3,0,0.4,0
		c0.2,0.1,0.4,0.2,0.5,0.5c0.1,0.4-0.2,0.5-0.5,0.7c-0.2,0.1-0.2,0.3-0.1,0.4c0.3,0.3,0.3,0.6,0.2,0.9c0.2,0,0.5,0,0.7,0.1
		c0.6,0.1,1.2,0.1,1.8-0.3c0.4-0.4,0.8-0.9,1.3-1.2c0.3-0.1,0.5-0.1,0.8-0.2c0.5,0.4,1,0.8,1.4,1.3c0.1,0.1,0.1,0.2,0.2,0.3
		c-0.1,0.5-0.4,0.9-0.7,1.2c-0.5,0.4-1,0.7-1.6,1.1c-0.4,0.3-0.9,0.2-1.3,0.4c-0.3,0-0.7,0.1-1,0.1c-0.4,0.1-0.6-0.2-0.9-0.3
		c-0.2-0.1-0.5-0.2-0.8-0.2c-0.1-0.1-0.1-0.1-0.3-0.1c-0.3-0.1-0.5-0.3-0.7-0.7c-0.1-0.3-0.4-0.4-0.8-0.4c-0.4,0-0.4,0.3-0.4,0.5
		c-0.2,0.7-0.6,0.8-1.1,0.3c-0.1-0.1-0.3-0.2-0.4-0.3c-0.3-0.2-0.6-0.3-0.7,0.2c-0.1,0.2-0.3,0.4-0.5,0.6c-0.4-0.1-0.5-0.5-0.8-0.7
		c-0.1,0.2,0.2,0.2,0.1,0.4c-0.1-0.1-0.2-0.2-0.3-0.3c-0.2-0.2-0.3-0.5-0.4-0.7c-0.2-0.4-0.3-0.9-0.9-0.9c-0.5-0.3-1-0.2-1.5-0.3
		c-0.1-0.2-0.3-0.1-0.5-0.2c-0.6,0-1-0.3-1.3-0.8c-0.1-0.2-0.3-0.4-0.5-0.6c-0.4,0.2,0.1,0.3,0,0.5c-0.1,0.1-0.1-0.3-0.3-0.1
		c-0.3,0.1-0.6,0.5-0.9,0.2c0,0,0,0.1-0.1,0.1c0.3,0.2,0.6,0.4,0.9,0.6c0.1,0.2-0.1,0.5,0.2,0.7c0.4,0.2,0.7,0.5,1.2,0.6
		c0.2,0.3,0.5,0.4,0.8,0.5c0.3,0.2,0.4,0.4,0.2,0.7c-0.2,0.3-0.2,0.7-0.3,1.1c0,0.1,0.3,0.2,0,0.3c-0.2,0.1,0,0.2,0,0.3c0,0,0,0,0,0
		c0,0,0,0,0,0c0,0,0,0,0,0v0c-0.2,0.3,0.1,0.5,0.3,0.7c-0.5,0.2-1.1,0.1-1.6,0.4c-0.2,0-0.4,0.1-0.5,0.1c-0.3,0-0.6,0-1,0
		c-0.8,0.1-1.5-0.1-2.3-0.1c-0.5-0.2-1.1-0.2-1.6-0.3C73.6,91,73.4,91,73.1,91c-0.1,0-0.1,0-0.2,0c-0.7-0.5-1.6-0.5-2.4-0.7
		c-0.2,0-0.4,0.2-0.5,0.4c-0.1,0.2,0.1,0.3,0.2,0.4c0.6,0.5,1.2,0.9,2,0.8c0.2,0.2,0.4,0.4,0.3,0.7c-0.1,0.3,0.1,0.4,0.4,0.5
		c0.6,0.2,1.2,0.4,1.8,0.2c0.2,0,0.4,0.1,0.6-0.1c0.1,0.1,0.3,0.2,0.4,0.3c0,0,0,0.1,0.1,0.2c0.3,0.3,0.1,0.6-0.1,0.9
		c-0.2-0.1-0.4,0-0.6,0.1c-0.6,0.2-1.2,0.5-1.9,0.6c-0.4,0-0.7,0.2-1,0.4c-0.3,0.1-0.6,0.3-0.9,0.4c-0.1,0-0.1,0-0.2,0
		c-0.5,0.2-1,0.4-1.4,0.6c-0.6,0.2-0.9,0.5-1.4,0.9c-0.2,0.1-0.1,0.2,0,0.3c0.3,0.3,0.7,0.3,1,0.2c0.6-0.2,1.1,0,1.7,0.1
		c-0.2,0.2-0.5,0.3-0.4,0.6c-0.4,0.9-0.2,1.3,0.7,1.3c0.4,0,0.7-0.1,1-0.4c0.2-0.1,0.4-0.2,0.7-0.3c0.4-0.1,0.7-0.3,1-0.5
		c1.1-0.6,2-1.5,3-2.2c0.3-0.2,0.5-0.4,0.8-0.6c0.1-0.1,0.1-0.1,0.2-0.2c0.3-0.2,0.6-0.3,0.9-0.5c0.8-0.1,1.7-0.2,2.5-0.5
		c0.3,0.1,0.7-0.4,0.8,0.2c0.1,0,0.2,0,0.3-0.1c0,0,0-0.1,0-0.1c0,0,0,0,0,0c0.3,0.2,0.1,0.5,0.1,0.8c-0.1,0.3-0.1,0.5-0.3,0.8v0
		l0,0c-0.2,0.3-0.5,0.6-0.7,1c-0.2,0.5-0.5,1-0.9,1.4c-0.2,0.2-0.5,0.4-0.3,0.7c0.2,0.3,0.5,0.5,0.9,0.2c0.5-0.3,0.9-0.6,1.4-0.9
		c0.1-0.1,0.3-0.2,0.5-0.2c0,0,0.1,0,0.1,0c0,0,0,0,0,0c0.1,0.2,0.2,0.2,0.3,0.2c0.3,0.4,0.4,0.9,1,1.1c0.3,0.1,0.4,0.3,0.5,0.5
		c0,0.3,0.1,0.4,0.3,0.4c0.3,0,0.7,0.1,1,0.1c0.9,0.1,1.8-0.3,2.7,0.1c0.4,0.1,0.7-0.1,0.9-0.3c0.4-0.3,0.7-0.7,1.2-0.8
		c0.2,0.2,0.4,0.5,0.5,0.7c0.1,0.2,0.3,0.3,0.4,0.5c0.3,0.2,0.7,0.3,1.1,0.2c0.2,0,0.5,0,0.7,0.1c0.8,0,1.6,0.1,1.8,1.1
		c0.1,0,0.2,0,0.3-0.1c0.3-0.3,0.5-0.8,1-0.7c0.1,0,0.2,0,0.2-0.1c0,0,0,0,0,0c0.5,0.1,1,0.3,1.5,0.4c0,0,0,0,0,0
		c-0.2,0.3-0.1,0.8-0.6,1c-0.2,0.3-0.4,0.5-0.7,0.7c0,0.2-0.1,0.3,0.2,0.2c0.2,0,0,0.1,0.1,0.1c0,0,0,0,0,0c0,0.2-0.1,0.3-0.2,0.5
		c-0.1,0.6,0.1,1.2,0.5,1.2c0.6,0,1.2-0.2,1.7-0.3c0.7-0.2,1-0.8,1.3-1.4c0.2-0.4,0.5-1,1.2-0.9l0,0c0.1,0.1,0.2,0.2,0.3,0.4
		c0-0.2-0.1-0.3-0.2-0.5c0,0,0,0,0-0.1c0,0,0,0,0,0c0.2,0.4,0.4,0.7,0.7,0.9c0.2,0.2-0.1,0.1-0.1,0.2c0.3,0.2,0.2,0.8,0.5,0.9
		c0.4,0.2,0.8,0.4,1.3,0.4c0.6,0.4,0.6,0.5,0,1.2c-0.1,0.1-0.3-0.1-0.4,0.1c0,0,0.1,0.2,0.1,0.2c0.1,0.1,0.1-0.1,0.2-0.1
		c0.5,1,0.7,2,0,3h0c-0.2,0.3-0.4,0.6-0.6,0.9c-0.2,0.7-0.3,0.7-0.9,0.4c0.1,0.3,0.3,0.5,0.4,0.7l0,0c0,0,0,0,0,0c0,0,0,0,0,0
		c0.1,0,0.3,0.1,0.3,0.2c0.2,0.7,0.7,0.7,1.3,0.6c0.2,0,0.2,0,0.1-0.4l0,0c0.1,0.1,0.2,0.2,0.4,0.3c0.2,0.1,0.4,0.3,0.5,0.4
		c0.4,0.5,0.9,0.7,1.5,0.9c0.1,0.2,0.3,0.3,0.3,0.5c0,0.8-0.1,0.8,0.5,1.1c0.2,0.1,0.5,0.2,0.7,0.3c-0.1,0.2-0.3,0.4-0.5,0.8
		c0.4-0.6,0.8-0.1,1.2-0.2c0.2,0.5,0.7,0.7,1.2,0.6c1-0.2,1.8-0.6,2.4-1.5c0.3-0.4,0.3-1,0.6-1.4c0.5,0.3,0.3-0.3,0.3-0.3
		c0.2-0.6,0.7-0.8,1.2-1.1c0.3-0.2,0.4,0.4,0.7,0.5c0-0.2-0.3-0.3-0.2-0.6c0.2,0.3,0.4,0.4,0.7,0.6c-0.1,0.5,0.4,0.7,0.6,1
		c0,0.1,0.1,0,0.1,0c0.3-0.3,0.7-0.3,1-0.6c0.3-0.3,0.7-0.1,1-0.3c1.2-0.1,2.3,0,3.4,0.1c0.2,0,0.3,0.2,0.4,0.3
		c-0.1-0.3-0.1-0.4,0.2-0.2c0.2,0.1,0.2-0.2,0.3-0.2c0.6,0,1.3-0.1,1.6,0.7c0.1,0.2,0.3,0.2,0.4,0c0.2-0.1,0.3-0.1,0.5-0.2
		c0.2,0.1,0.4,0,0.6,0c0.4,0.2,0.8,0,1.1,0.4c0.1,0.2,0.3,0.4,0.4,0.6c-0.1,0.2-0.1,0.4,0,0.6c0.1,0,0.2-0.1,0.3-0.1
		c0.2,0.1,0.2,0.1,0.1,0.3c-0.4,0.2-0.7,0.3-1,0.5c-0.3,0.3-0.1,0.6,0,0.8c0.1,0.2,0.5,0.4,0.6,0.6c0.3,0.5,0.7,0.6,1.2,0.4
		c0.3,0.1,0.5-0.1,0.7-0.1c0.8-0.1,1.5-0.3,2.2,0.3l0,0c0,0,0,0,0,0c0.2,0.4,0.7,0.6,0.6,1c-0.2,0.6,0.3,0.2,0.4,0.3
		c-0.3,0.6-0.3,1.2-0.6,1.8c-0.1,0.2-0.2,0.3-0.3,0.5c-0.1,0.1-0.2,0.2-0.4,0.3c-0.5,0.3-0.8,0.9-1.3,1.2c-0.1,0-0.2,0.1-0.2,0.2
		c-0.1,0.1-0.1,0.1-0.2,0.2c-0.2,0.3-0.7,0.4-0.8,0.8c-0.4,0.3-0.7,0.6-1.1,0.8c-0.2,0.1-0.5,0.2-0.3,0.6c0.1,0.5,0.1,1-0.2,1.4
		c-0.1,0.2-0.2,0.4-0.4,0.6c-0.2,0.2-0.3,0.4-0.5,0.6c-0.1,0.2-0.3,0.3-0.4,0.6c-0.2,0.3-0.4,0.7-0.7,0.9c-0.3,0.2-0.5,0.5-0.6,0.8
		c-0.2,0.2-0.5,0.5-0.7,0.7c-0.1,0.1-0.2,0.2-0.3,0.2c-0.1,0.1-0.3,0.2-0.4,0.3c-1.1,0.4-1.9,1.1-2.8,1.8c-0.1,0.1-0.2,0.3-0.2,0.4
		l0,0c-0.2,0.3-0.4,0.6-0.6,0.8c0,0,0,0,0,0s0,0,0,0v0c0,0,0,0,0,0c-0.2,0.6-0.9,0.9-1.2,1.5c-0.2,0.1-0.3,0.3-0.5,0.4
		c0.4,0.1,0.6-0.2,0.8-0.3c0.3,0,0.6,0,0.9-0.1c-0.1,0.1-0.2,0.1-0.3,0.2c0,0.1,0,0.2,0.2,0.2c0.4-0.4,1-0.5,1.4-0.8
		c0,0,0.1-0.1,0.1-0.1c0.4-0.1,0.6-0.3,0.9-0.5c0.1,0,0.1,0,0.2,0c0.2,0,0.3-0.2,0.3-0.3c0.1-0.1,0.3-0.2,0.4-0.3
		c0.9-0.5,1.5-1.2,1.9-2.2c0-0.2,0.2-0.3,0.3-0.4c0.1,0,0.1-0.1,0.2-0.1c0.7-0.2,1-0.8,1.1-1.5c0-0.1,0-0.2,0-0.3
		c0.1-0.3,0.2-0.5,0.4-0.8c0.1-0.1,0.3-0.2,0.4-0.3c0.4-0.2,0.7-0.5,0.8-1c0.1-0.1,0.1-0.1,0.2-0.2c0.2-0.3,0.5-0.6,0.7-0.9
		c0.3-0.2,0.7-0.5,1-0.8c0.1,0.2,0.3,0.3,0.5,0.2c0.2,0,0.4-0.1,0.5-0.3c0.1-0.2,0.2-0.2,0.4-0.1c0,0,0.1,0,0.1,0c0,0,0-0.1,0-0.1
		c0-0.2,0.3-0.1,0.3-0.2c-0.1-0.2-0.2-0.5-0.3-0.7c1-0.6,1.8-1.4,2.3-2.5c0-0.1,0.1-0.2,0.2-0.3c0,0,0,0,0,0
		c0.1-0.2,0.2-0.4,0.3-0.6c0.4-1,1.5-1.2,2.2-0.4c0.3,0.4,0.7,0.8,1,1.2c-0.1,0.4-0.2,0.7-0.6,0.9c-0.9,1-1.7,2.1-2.8,2.8
		c-0.9,0.1-0.9,0.1-0.7,0.9c0.2,0.2,0.3,0.5,0.2,0.8c-0.2,1.1,0.7,1.8,1.2,2.7c0.4,0.4,0.2,0.8,0.1,1.2c-0.3,0.5-0.8,0.8-1.4,0.8
		c-0.5,0-0.6,0.3-0.5,0.7c0,0.1,0.1,0.3,0.1,0.4c0,0.1,0.1,0.3,0.1,0.2c0.4-0.6,0.8-0.3,1.3-0.1c0.4,0.1,0.7,0.1,0.9-0.2l0,0l0,0
		c0.3,0.2,0.7,0.2,0.8,0.6c0,0,0.1,0,0.2,0c0,0.1,0,0.1,0,0.2c-0.4,0.5-0.8,0.8-1.4,1.1c-0.3,0-0.6,0-0.9,0.2
		c-0.3,0.1-0.7,0.1-1,0.3c0,0,0,0.1,0.1,0.1c0.4,0,0.6,0.4,1,0.3c0.3-0.1,0.5-0.1,0.8-0.1c0,0,0,0.1,0.1,0.1c0,0,0.1-0.1,0.1-0.1
		c-0.3-0.3,0-0.3,0.1-0.4c0.4-0.2,0.7-0.2,1,0.2c0.1,0.2,0.3,0.3,0.4,0.4c0.3,0.4,0.9,0.2,1.2,0.5c0.3,0.2,0.5,0.2,0.8,0.1
		c0,0,0,0,0,0.1c-0.2,0.3-0.2,0.5,0,0.8c0.2-0.1,0.3-0.1,0.3,0.1c0,0-0.1,0.1-0.1,0.1c-0.2,0.1-0.4,0.2-0.6,0.2
		c-0.6,0.1-1.1,0.4-1.6,0.9c-0.1,0.1-0.2,0.1-0.2,0.3c0.1,0.2,0.2,0.2,0.4,0.2c0.7,0,1.4,0.1,2.1,0.1c0.5,0.2,1.1,0.3,1.6,0.5
		c0.3,0.1,0.1-0.2,0.2-0.2c0.2,0.2,0.4,0.5,0.4,0.8c0.1,0.3,0.2,0.5,0.6,0.4c0.5,0,1,0.3,1.5,0.4c0.5,0.1,0.7,0.4,0.8,0.8
		c0,0.1,0,0.2-0.1,0.4c-0.1,0.1-0.1,0.3-0.2,0.4c-0.2,0.4,0,0.8-0.2,1.2c-0.1,0.3-0.4,0.5-0.1,0.7c0.3,0.2,0.6,0.2,0.9-0.1
		c0.4-0.3,0.8-0.7,1.2-1.1c0.4-0.4,0.8-0.6,1.4-0.3c0.3,0.2,0.8,0,1.1-0.2c0.2-0.1,0.3-0.2,0.6-0.2c0.2-0.1,0.5-0.2,0.5-0.5
		c0.3-0.3,0.6-0.5,0.9-0.8c0.7-0.9,1.5-1.8,2.4-2.5c0.5-0.3,1-0.5,1.5,0c0,0,0-0.1,0-0.1c0,0,0,0,0-0.1c1.3,0.7,1.5,0.6,2.1-0.8
		c0.2-0.4,0.3-0.8,0.8-0.8c0.1,0,0.2,0,0.3,0c1.3,0.3,2.5-0.6,3-1.5c0.3-0.2,0.6-0.4,1-0.5c0.5-0.1,0.5,0.4,0.9,0.5
		c-0.1-0.2-0.2-0.3-0.3-0.5c0.2,0,0.3,0.2,0.5,0.2c0-0.1-0.2-0.2-0.1-0.3c0.4,0.1,0.6,0.6,1.1,0.5c0.5-0.1,0.9,0,1.2,0.4
		c-0.1-0.1-0.1-0.2-0.2-0.4c0,0,0.1,0,0.1,0c0,0,0,0,0,0h0l0,0c0,0.1,0.1,0.1,0.2,0.2c0.1-0.1,0.1-0.1,0.2-0.1c0,0,0,0,0,0.1
		c0.1,0,0.1,0.1,0.2,0.1c0,0,0,0.1,0.1,0.1c0.1,0.2,0.3,0.3,0.6,0.2c0.9-0.2,1.5-0.7,2-1.4c0.2-0.3,0.4-0.3,0.6,0
		c0-0.2,0.1-0.4,0.3-0.5c0.4-0.2,0.4-0.5,0.3-0.9c0.1-0.3,0.4-0.2,0.6-0.3c0.1,0,0.2,0,0.3-0.1c0.5-0.2,0.9-0.3,1.4-0.2
		c0.3,0.3,0.6,0.2,0.8,0c1.1-0.8,1.9-1.9,2.4-3.1c0.3-0.9-0.2-1.5-0.7-2.1l0,0l0,0c-0.1-0.1-0.2-0.3-0.2-0.5c0-0.7,0.1-0.9,0.8-0.8
		c0-0.1,0-0.2,0-0.4c0.3,0.5,0.7,0.6,1.2,0.5c0.5-0.1,1-0.2,1.5-0.3c0.1,0,0.2,0,0.2-0.1c0.8-0.2,1.1-0.8,1.4-1.4c0,0,0,0,0-0.1
		c0.6-0.5,0.9-1.1,0.9-1.8c0-0.7,0-1.4,0-2.1c0-1.2-0.4-1.7-1.6-2.1c-0.2-0.2-0.4-0.4-0.5-0.7c0-0.3-0.1-0.5-0.3-0.7l0,0l0,0
		c-0.1-0.3-0.2-0.5-0.3-0.8c0-1-0.7-1.7-1.2-2.4c-0.1-0.1-0.2-0.3-0.3-0.4c-0.1-0.2-0.3-0.3-0.5-0.3c-0.1-0.1-0.2-0.2-0.3-0.4l0,0
		l0,0c0-0.3,0.3-0.3,0.4-0.5c0.2-0.2,0.5-0.4,0.7-0.6c0.2-0.2,0.5-0.3,0.8-0.4c0.6-0.3,1.2-0.6,1.6-1.1c0,0,0.1-0.1,0.1-0.1
		c0.6-0.5,0.9-1.2,0.7-1.9c-0.3-0.7-0.8-1.3-1.7-1.3c-0.5,0-0.8-0.3-1.1-0.7c-0.3-0.4-0.7-0.8-1-1.3c0,0,0,0-0.1,0.1
		c0.3,0.4,0.7,0.8,1,1.3c0,0.1,0.1,0.1,0.1,0.2c-0.5-0.4-1-0.9-1.4-1.4c-0.1-0.1-0.2,0-0.3-0.1c-0.4-0.4-0.4,0.1-0.5,0.2
		c-0.3,0.4-0.2,1.1-0.8,1.3c0,0-0.1,0.1-0.1,0.1c-0.5,0.1-1.1,0.6-1.6,0c-0.6-0.8-1.2-1.6-1.9-2.3c-0.4-0.5-0.7-1-0.7-1.8
		c0-0.2,0.2-0.4,0.1-0.6c-0.1-0.1-0.2-0.2-0.1-0.4c0.3,0,0.3,0.3,0.5,0.3c-0.3-0.5-0.3-0.8,0.2-1.1c0.1,0,0.1-0.2,0.2-0.3
		c0.1-0.3,0.1-0.6,0.3-0.9c-0.4,0-0.8,0.1-1.2,0.1c-0.3-0.5-0.1-1.1-0.1-1.6c0,0,0,0,0-0.1c0.2-0.3,0-0.7-0.1-0.9
		c-0.2-0.5-0.4-1-0.4-1.6c0.1-1,0.5-1.9,0.8-2.8c0.1-0.4,0.2-0.7,0-0.9c-0.4-0.6-0.5-1.3-0.7-1.9c-0.1-0.3,0-0.6-0.1-0.8
		c0.1-0.6-0.2-1.2-0.3-1.8c0-0.6,0-1.2-0.2-1.8c-0.1-0.1-0.1-0.3-0.3-0.3c-0.2,0-0.2,0.2-0.2,0.3c-0.3,0.6,0,1.2,0,1.8
		c-0.1,0-0.2-0.2-0.2-0.1c0,0.6-0.5,0.7-0.9,0.9c-0.2-0.1-0.4-0.1-0.6-0.3c-0.3-0.4-0.8-0.7-1.3-0.9c-0.2-0.5-0.3,0.2-0.5,0
		c-0.3-0.1-0.6-0.1-1-0.1c-0.3-0.1-0.6-0.1-0.8-0.4c-0.2-0.2-0.4-0.5-0.5-0.7c0.1,0,0.2-0.1,0.2-0.1c0-0.7,0.2-1.3,0.3-2
		c0.1-0.4,0.1-0.9,0-1.4c0-0.1,0-0.2,0-0.3h0h0c0-0.2-0.1-0.3-0.1-0.4c0.1,0,0.2,0.1,0.3,0c0.1-0.1,0-0.1-0.1-0.2
		c-0.2-0.3-0.4-0.5-0.3-0.9c0.1-0.3,0.2-0.6,0.1-0.9c0-0.2,0-0.5,0.1-0.7c0.2-0.4,0.4-0.7,0.4-1.1c0.4-0.3,0.3-0.8,0.4-1.2
		c0.1-0.4-0.2-0.6-0.2-1c-0.1-0.4-0.5-0.8-0.7-1.3c-0.5-1.1-1.5-1.7-2.4-2.5c-0.1,0-0.2-0.1-0.3-0.2c0,0,0.1,0,0.1,0
		c0-0.4,0.3,0,0.4-0.2c-0.1-0.3-0.5-0.2-0.6-0.5c0.8-0.4,1.1-0.9,1-1.8c0-0.5,0-0.9,0.5-1.1c0.2-0.1,0.3-0.2,0.2-0.4
		c-0.2-0.3,0-0.5-0.1-0.8c0-0.2,0-0.5,0.1-0.7c0.1-0.2-0.2-0.4-0.2-0.6c0.1-0.6,0.1-1.2,0.1-1.8c0-0.4-0.2-0.6-0.4-0.8
		c-0.2-0.2-0.5-0.1-0.8,0c-0.4,0.3-0.7,0.7-1.1,1.1c-0.3,0.2-0.6,0.3-1,0.1c-0.4-0.2-0.8-0.4-1.3-0.3c-0.4-0.1-0.7-0.1-1.1-0.3
		c-0.2-0.1-0.4-0.3-0.7-0.3c-0.1-0.1-0.2-0.3-0.3-0.4c-0.1-0.8-0.7-1.2-1.1-1.8c-0.2-0.3-0.4-0.2-0.6-0.1c-0.5-0.1-0.6,0.4-0.8,0.6
		c-0.4,0.3-0.7,1-1.3,0.5c-0.4,0,0,0.3-0.1,0.4c-0.1-0.2-0.3-0.2-0.5-0.2c-0.2-0.1-0.3-0.1-0.5-0.1c-0.6,0-1-0.3-1.3-0.8
		c-0.3-0.4-0.6-0.8-1-1.2c-0.1-0.3-0.2-0.6-0.2-0.9c0,0,0-0.1-0.1-0.1l0,0c0-0.4-0.4-0.6-0.5-0.9c0.2-0.1,0.2,0.2,0.6,0.1
		c-0.5-0.2-0.4-0.5-0.5-0.8c0.3-0.5,0.6-1,0.9-1.5c0.2-0.3,0.3-0.7,0.5-1c0.1-0.1,0.1-0.1,0.1-0.2c0.1-0.1,0.2-0.2,0.3-0.3
		c0.3,0.1,0.5,0,0.7-0.2c0.2-0.2,0.5-0.2,0.7-0.2c1.3,0.2,2.1-0.6,2.7-1.6c0.2-0.1,0.4-0.2,0.7-0.4c0.5-0.1,1-0.2,1.5-0.3
		c0.5-0.3,0.7,0.5,1.1,0.2c0-0.1,0-0.1,0-0.2c0.1,0.1,0.1,0.1,0.2,0.2c0.1,0.2,0.3,0.2,0.5,0.1c0.7-0.3,1-0.8,1-1.6
		c-0.1-0.4,0.1-0.7,0.2-1c0.3-0.2,0.6-0.5,1-0.6c0.1,0,0.1-0.1,0.1-0.1c0.6-0.5,1.5-0.6,2-1.1c0.1,0,0.2,0,0.2-0.1
		c0.7-0.6,1.4-1,2.2-1.3c0.2-0.1,0.2-0.5,0.5-0.2c0.4-0.2,0.5-0.5,0.3-0.8c-0.7,0.3-1.5,0.6-2.3,0.7c-0.2,0-0.4,0-0.5-0.1
		c-0.3-0.1-0.5-0.1-0.7,0.1c-0.2,0.2-0.5,0.4-0.8,0.7c-0.2,0.2-0.5,0.3-0.7,0.5c-0.6,0-1.1-0.3-1.6-0.4c-0.4-0.2-0.8-0.4-1.2-0.3
		c-0.8,0.1-1.1,0.7-1.3,1.3c-0.1,0.2-0.2,0.3-0.2,0.5c-0.2,0.1-0.3,0.3-0.5,0.4c-0.1,0.1-0.3,0.2-0.4,0.3c-0.2,0.2-0.5,0.3-0.8,0.3
		c-0.4-0.2-0.3-0.7-0.8-0.8c0,0,0,0,0-0.1c0.4-0.4-0.2-0.8,0.1-1.2c0.1-0.2,0.2-0.5-0.1-0.6c-0.2-0.2-0.5-0.2-0.7,0
		c-0.3,0.1-0.5,0.2-0.8,0c-0.3-0.1-0.6-0.3-0.7-0.5c-0.2-0.4-0.6-0.6-0.7-1.1c0,0,0.1,0,0.1,0.1c0,0,0,0,0,0c-0.2-0.5,0.3-1,0.1-1.5
		c0.1-0.4,0.4-0.6,0.7-0.9c0.4-0.3,0.9-0.5,1.1-1c0-0.2,0.1-0.5,0.1-0.7c0-0.8-0.3-1.1-1.1-0.8c-1,0.3-1.4,1.2-1.7,2.1
		c0,0.2,0.2,0.3,0.4,0.3c0,0.1,0.5,0.2,0.1,0.4c-0.1,0-0.1,0-0.1,0.1c-0.4,0.2-0.6,0.7-1.1,0.6c0,0-0.1,0-0.1,0
		c-0.1-0.1-0.3,0-0.3-0.2c-0.4-0.5-0.1,0.2-0.4,0.1c-0.1-0.1-0.2-0.2-0.3-0.4c-0.1,0.2,0.2,0.3,0.1,0.5c-0.1-0.2-0.3-0.3-0.4-0.5
		c-0.1,0.2-0.3,0.1-0.4,0c-0.5-0.4-0.7-0.9-0.7-1.5c0-0.5-0.2-1-0.4-1.5c0.1-0.4,0.2-0.8,0-1.1c0-0.2-0.1-0.4-0.2-0.6
		c-0.1-0.5-0.4-0.7-0.8-0.9c-0.4-0.2-0.8,0.2-1.1-0.1c0,0.1-0.1,0.3-0.1,0.4c-0.2,0.2-0.3,0.4-0.2,0.7c0.5,0.5,0.8,1.1,1,1.8
		c0,0.1,0.1,0.1,0.2,0.2c0,0,0,0,0.1,0c-0.1,0.2-0.1,0.4-0.2,0.6c0,0-0.1,0-0.1,0c-0.5,0-0.7-0.2-1-0.6c-0.3-0.4-0.5-0.8-1-1.1
		c0,0-0.1,0-0.1,0c0,0,0,0,0,0c0.5-0.2,0.7-0.7,1-1c0.1-0.2,0.1-0.4,0-0.6c0,0,0-0.1,0-0.1c0,0,0,0,0-0.1c0-0.1-0.1-0.2-0.1-0.2
		c0,0-0.1-0.1-0.1-0.1c0,0,0,0,0,0c0,0.1,0-0.1,0,0l0,0c0,0,0,0,0,0c0,0,0.1,0.1,0.1,0.1c0.1,0.1,0.1,0.1,0.1,0.2c0,0,0,0,0,0
		c0,0.1,0,0.1,0,0.1c0,0,0.1,0,0.1,0c0.1,0,0.1-0.1,0.1-0.2c-0.4-0.6-0.8-0.9-1.5-0.7c-0.6,0.1-1-0.2-1.4-0.6
		c-0.1-0.1-0.2-0.1-0.3-0.1c-0.2-0.3-0.5-0.6-0.6-1c0.1-0.3-0.3-0.4-0.3-0.7c0.1-0.3-0.2-0.6-0.1-0.9c0.1-0.3,0-0.8,0.2-0.9
		c0.5-0.2-0.3-0.5,0.1-0.6c0,0,0-0.1,0-0.1c0.2-0.7,0.4-1.4,0.7-2.1c0.3-0.3,0.6-0.6,0.7-1c0.2-1,0.3-2,0-2.9
		c-0.2-0.4-0.3-0.8-0.5-1.2c-0.1-0.2,0.2-0.4-0.1-0.5c-0.4-0.1-0.7-0.4-1-0.6c-0.4-0.3-0.7-0.7-1.2-0.9c-0.4-0.2-1-0.3-1.3-0.5
		c-0.4-0.3-0.3,0.1-0.4,0.2c-0.2-0.1-0.3-0.3-0.3-0.6c0-0.3-0.2-0.5-0.4-0.7l0,0c-0.4-0.5-0.7-1-0.7-1.7c0-0.4-0.1-0.9-0.3-1.2
		c-0.3-0.4-0.7-0.7-1.2-0.6c-0.5,0.1-0.4,0.6-0.4,1c0,0.2,0.1,0.4,0.1,0.7c0,0.5,0.6,0.7,0.6,1.2c0.4,1.6,0.4,1.7-0.6,2.4
		c-0.2,0.1-0.4,0.2-0.6,0.2c-0.3,0.1-0.2,0.3-0.1,0.4c0,0.2,0,0.4,0.1,0.6c0.4,0.7,0,1.1-0.5,1.5c-0.7,0.1-1.3-0.3-2-0.4
		c0,0.1,0,0.2,0,0.3c-0.1,0-0.1,0-0.2,0c-0.3-0.4-0.7-0.8-1.3-0.8c-0.6-0.1-1.1-0.2-1.5-0.6c-0.2,0.1,0.2,0.2,0,0.3
		c-0.2-0.1-0.2-0.4-0.5-0.4c-0.2-0.1-0.3-0.2-0.5-0.2c-0.7-0.3-0.7-1.1-1.2-1.6c0-0.1,0-0.1,0-0.2c0.1,0.1,0.3,0.2,0.3-0.1
		c0.1-0.5,0.8-0.6,0.9-1.2c0-0.2,0.3-0.1,0.5-0.1c0,0,0.1-0.1,0.1-0.1c0.1-0.3,0.2-0.6,0.1-0.9c0-0.4-0.3-0.5-0.6-0.6
		c-0.4-0.1-0.9,0-1.3,0c-0.6,0-0.7,0.6-1.1,0.9c-0.1,0.3,0.3,0.4,0.1,0.7c-0.1-0.1-0.2-0.2-0.2-0.3c-0.1,0.1,0,0.2,0.1,0.3
		c-0.1,0-0.1,0.1-0.2,0.1c-0.1-0.1-0.1-0.2-0.2-0.3c-0.1,0-0.1-0.1-0.2-0.1c0,0.1,0,0.1,0,0.2c0,0-0.1,0.1-0.1,0.1
		c-0.1-0.1-0.2-0.2-0.3-0.3h0c-0.3-0.5-0.6-1-0.6-1.6c-0.1-0.1-0.2-0.2-0.2-0.3c-0.3-0.4-0.6-0.7-0.6-1.2c-0.1-0.9-0.8-1.3-1.2-2
		c0-0.3-0.1-0.6-0.4-0.8c-0.1,0.1,0.2,0.2,0,0.3c-0.2-0.2-0.4-0.5-0.5-0.7l0,0l0,0c-0.1-0.1-0.1-0.2-0.2-0.3
		c0.2-0.1,0.2,0.2,0.4,0.1c-0.6-0.4-0.6-1.1-1-1.6c-0.3-1.7-1.4-3-2.2-4.4c-0.5-0.4-0.5-1.1-0.8-1.6c0-0.5-0.5-0.7-0.6-1.1
		c0.1-0.1,0.2,0.2,0.3,0c-0.2-0.3-0.5-0.6-0.7-0.9c-0.1-0.1-0.1-0.2-0.2-0.3c-0.2-0.8-0.6-1.3-1.2-1.7c-0.5-0.2-0.8,0-1.2,0.3
		c-0.2,0.5-0.4,0.9-0.5,1.4c0,0.1-0.1,0.3-0.1,0.4c-0.2,0.2-0.3,0.3-0.3,0.6c-0.5,0.6-0.2,1.3-0.3,2c-0.1,0.3-0.1,0.5,0,0.8
		c0,0.2,0,0.5,0.2,0.6c0.4,0.4,0.6,1,0.9,1.5c0,0,0,0.1,0,0.1c-0.1,0.1-0.1-0.2-0.3-0.1c0.1,0.2,0.3,0.4,0.3,0.8
		c-0.2-0.2-0.3-0.4-0.6-0.7c0.2,0.8,0.7,1.3,1.1,1.8c0.2,0.3,0.4,0.5,0.5,0.8c0.1,0.9,0.7,1.7,1,2.6c0.2,0.5,0.3,1.1,0.8,1.4
		c-0.2,0.2,0,0.4,0.1,0.6c0.1,0.1,0.2,0.2,0.3,0.4c0.1,0.1,0.2,0.3,0.3,0.4v0c0.2,1,1.1,1.6,1.4,2.5c0.1,0.2,0.3,0.4,0.3,0.6
		c0,0.6,0.4,1.1,0.7,1.5c0.7,0.9,1.5,1.8,2.2,2.8c0,0.1,0,0.1,0,0.2c-0.1,0.1-0.2,0.3-0.3,0.5c0.3,0,0.4-0.3,0.6-0.2
		c0,0.3-0.4,0.3-0.5,0.6c0.2,0.2,0.3-0.4,0.4,0c0,0.1,0.4,0.1,0.1,0.3c-0.3,0.2-0.4,0.5-0.8,0.5c-0.6,0.1-1.1,0.3-1.7,0.6
		c-0.3,0.1-0.7,0.5-0.4,0.8c0.3,0.3,0.5,0.7,0.9,0.8c0.7,0.9,0.5,1.5-0.6,1.6c-0.3,0-0.5,0-0.7,0.3c-0.2-0.2-0.4-0.2-0.6,0
		c-0.2,0.1-0.3,0.3-0.6,0.3c-0.3-0.2-0.7-0.4-1-0.1c-0.3,0.3-0.2,0.7-0.2,1c0,0.1,0,0.2,0,0.2c0.1,0.6-0.3,0.4-0.6,0.4
		c0.1,0.2,0.1,0.3,0.1,0.5c-0.2-0.3-0.4-0.7-0.9-0.3c-0.4-0.4-0.7-0.9-1.2-1.2c0,0,0,0-0.1,0c0,0,0,0,0,0c0,0,0-0.1,0-0.2
		c0,0,0,0,0,0c0.4-0.4,0.3-0.9,0.4-1.3c0.2-0.4,0.7-0.9,0-1.3c-0.1,0-0.1-0.2-0.2-0.1c-0.3,0.4-0.5,0.1-0.7,0
		c-0.3-0.1-0.5-0.4-0.8-0.4c-0.9-0.4-1.4-1.2-2-1.9c0-0.1,0-0.2,0-0.3c-0.4-0.3-0.8-0.7-1-1.1c-0.1-0.1-0.2-0.3-0.3-0.4
		c-0.2,0.1-0.1,0.3-0.1,0.4c0.1,0.2,0.3,0.4,0.2,0.7c-0.1-0.1-0.2-0.2-0.3-0.3c0,0.9-0.6,1.2-1.2,1.6c-0.4,0-0.7,0.1-1.1,0.2
		c-0.5,0.1-0.7,0.4-0.4,0.9c0.2,0.4,0.5,0.6,0.9,0.7c0.8,0.2,1.7,0.2,2.5,0.1c0.4-0.1,0.8,0,1,0.4c0,0,0,0,0,0c0,0,0,0,0,0
		c0.4,0.5,0.7,0.9,1.1,1.4c0.2,0.4-0.1,0.8-0.1,1.1c-0.4,0.4-0.8,0.6-1.3,0.4c-0.5-0.2-1-0.4-1.6-0.5c-0.3,0-0.6-0.1-0.8-0.3
		c0.1,0.1,0.1,0.2,0.2,0.3c-0.4-0.2-0.6-0.7-1.1-0.8c-0.5-0.3-0.9-0.5-1.3-0.9c-0.3,0-0.4-0.3-0.7-0.4c-0.3-0.1-0.4-0.5-0.8-0.3
		c-0.5,0-0.9,0.3-1.3,0.4c-0.2-0.2-0.4-0.5-0.6-0.7c0,0,0,0,0-0.1c-0.3-0.1-0.5-0.2-0.8-0.4c-0.3-0.1-0.5-0.3-0.9-0.3
		c-0.4-0.1-0.7-0.4-1.1-0.4c-0.6-0.4-1.1-0.9-1.5-1.5c-0.1-0.2-0.2-0.5-0.3-0.7c-0.1-0.3-0.1-0.7-0.5-0.8c-0.2-0.2-0.4-0.4-0.7-0.4
		c-0.1-0.1-0.1-0.2-0.2-0.1c-0.2-0.2-0.4-0.3-0.6-0.5c-0.1-0.1-0.3-0.2-0.4-0.3c-0.1-0.1-0.1-0.1-0.2-0.1c-0.1-0.1-0.2-0.2-0.3-0.4
		c-0.5-0.3-0.9-0.9-1.6-1c-0.7-0.2-1.2-0.7-1.8-1.1c-0.1-0.1-0.3-0.2-0.4-0.2c-0.2-0.1-0.3-0.1-0.5-0.1c-0.5-0.3-1.3-0.1-1.6-0.8
		c-0.2,0.1,0.1,0.2,0,0.3h0h0c-0.1,0-0.2,0-0.3-0.1c-0.4-0.2-0.8-0.3-1.1-0.7c0,0,0,0.1,0,0.1c0,0,0,0,0,0.1c-0.4-0.1-0.8-0.3-1-0.7
		c0,0-0.1-0.2-0.1,0c0,0,0.1,0.1,0.1,0.2c-0.2,0.1-0.2-0.1-0.3-0.2v0v0c-0.1-0.2-0.3-0.3-0.4-0.5c-0.4-0.4-0.9-0.5-1.3-0.9
		c-0.1-0.3-0.3-0.2-0.5-0.2c-0.3-0.4-0.7-0.6-1.1-0.8c-0.1,0-0.2,0-0.3,0c-0.4-0.3-1-0.2-1.3-0.6c-0.2-0.2-0.3-0.6-0.6-0.6
		c-0.2-0.1-0.4-0.3-0.7-0.3c-0.3-0.3-0.7-0.4-0.9-0.7c-0.1-0.1-0.1,0-0.1,0c0,0.1,0.1,0.1,0.1,0.2c-0.4-0.1-0.5-0.5-0.7-0.7
		c-0.2-0.2-0.4-0.5-0.8-0.4c-0.2-0.2-0.4-0.3-0.6-0.5c-0.2-0.2-0.4-0.4-0.6-0.5c-0.3-0.3-0.7-0.4-0.9-0.7c-0.2-0.2-0.2-0.5-0.6-0.5
		c-0.5-0.3-1-0.6-1.7-0.5C69.4,12.6,69,12.9,69.1,13.5z M76.5,78.3C76.5,78.3,76.5,78.3,76.5,78.3c-0.4-0.3-0.9-0.3-1.4-0.4
		c0.4-0.3,0.4-0.7,0.6-1.1c0,0,0,0,0,0c0.4,0,0.7,0,1.1-0.2c0,0,0,0,0-0.1c0.3,0.1,0.5,0.5,0.8,0.6c0,0,0,0,0,0
		c0.2,0.5,0.4,1,0.1,1.5C77.3,78.3,76.9,78.1,76.5,78.3z M172.1,129.1c0.2-0.3,0.4-0.7,0.6-1c0.5-0.1-0.2,0.4,0.2,0.4
		c0.2-0.2,0.4-0.3,0.6-0.5c0.1,0.1,0.1,0.4,0.3,0.4c-0.1,0.1-0.1,0.1-0.1,0.2c0,0,0,0.1,0,0.1c-0.1,0.3-0.3,0.5-0.3,0.8
		c0,0.2,0.1,0.2,0.2,0.1c0,0,0,0,0,0c0.1,0.1,0.5-0.1,0.4,0.3c0,0,0,0,0,0c-0.1,0.1-0.2,0.1-0.2,0.2c0,0,0,0,0,0
		c-0.1,0-0.2-0.1-0.3-0.1c0,0,0,0,0,0c-0.1-0.1-0.2-0.4-0.3-0.1c-0.4,0.7-0.7,0.5-1.2,0.2c-0.5-0.4-0.1,0.4-0.5,0.3
		c-0.1-0.1-0.2-0.3-0.3-0.5c0,0,0,0,0.1,0c0-0.4,0.1-0.8,0.3-1.2c0.2,0,0.3,0.3,0.4,0.4c0,0.2,0.1,0.3,0.3,0.4
		C172.2,129.4,172.1,129.3,172.1,129.1z M94.7,95.4c0.2,0.2,0.4,0.2,0.7,0.4c-0.3,0.1-0.7,0-0.7,0.4c0.5-0.3,0.7,0,1,0.3
		c0,0.2,0,0.5,0,0.7c0.1,1,0.3,1.2,1.3,1.2c0.4,0.1,0.5,0.5,0.8,0.8c-0.3,0.4-0.3-0.3-0.6-0.2c0.1,0.2,0.2,0.3,0.4,0.6
		c-0.3-0.1-0.6-0.2-0.6,0.1c0.2,0.2,0.5,0.1,0.7,0.2c-0.2,0-0.4,0.1-0.5,0.2c0,0,0,0,0,0c-0.9-0.2-1.9-0.4-2.8-0.6
		c-0.1,0-0.1,0-0.2,0.1c0,0,0,0,0,0c-0.1-0.2-0.3-0.6-0.6-0.4c-0.2,0.2-0.1-0.1-0.2,0c-0.1,0-0.1-0.1-0.2-0.1
		c-0.1-0.2-0.2-0.4-0.3-0.5c0.1,0,0.1,0.2,0.2,0.1c0.1-0.1,0.1-0.2,0-0.3c-0.1-0.1-0.1-0.3-0.3-0.4c-0.1-0.7,0.1-1.3,0.3-1.9
		c0,0,0,0,0,0C93.6,95.9,94.3,95.9,94.7,95.4z M117.7,20.3c-0.5,0.3-0.6-0.1-0.8-0.4c-0.3-0.3-0.5-0.6-0.8-1c0-0.1,0-0.1,0-0.2
		c-0.3-0.5-0.6-1-0.8-1.5c-0.1-0.2-0.2-0.5-0.5-0.6c0,0-0.1,0-0.1,0c0,0,0.1,0,0.1-0.1c-0.1-0.7-0.3-1.3-0.6-1.9
		c-0.4-0.9-1-1.7-1.3-2.7c-0.2-0.6-0.3-1.1-0.5-1.7c0,0,0-0.1-0.1-0.1c0.4-0.2,0.8-0.2,1.1,0c0,0.1,0.1,0.2,0.1,0.3
		c0.3,1,0.8,1.8,1.3,2.8c0.2,0.4,0.3,0.8,0.7,1c0.1,0,0.1,0.1,0.2,0.1c0.2,0.8,0.4,1.6,0.6,2.3c0.1,0.3,0.3,0.6,0.7,0.7
		c0,0,0.1,0,0.1,0c0,0.2,0.1,0.4,0.4,0.4c0,0,0,0,0,0c0.1,0.5,0.2,0.9,0.5,1.3c0,0,0.1,0.1,0.1,0.1c0,0.4,0.1,0.7,0.1,1c0,0,0,0,0,0
		l0,0c-0.1-0.1-0.2-0.2-0.2-0.1c-0.1,0.1,0,0.1,0,0.2c0.1,0.1,0.1,0.2,0.2,0.2C118,20.7,117.9,20.2,117.7,20.3z"/>
	<path class="st0" d="M55,98c-1.3-0.4-2.6-0.1-3.8,0.5c-0.2,0-0.5,0-0.6,0.2c-0.7,0.1-1.4,0.3-2.1,0.4c-0.6,0.1-1.2,0.1-1.7,0.4
		c-2,0.3-4,0.8-5.9,1.3c0,0,0,0-0.1,0l0,0c-0.2,0.1-0.4,0.1-0.6,0.2c-1.2,0.4-2.3,0.5-3.5,0.7c-0.8,0-1.5,0.2-2.2,0.5
		c-0.2,0.1-0.4,0.2-0.7,0.3c-0.3,0.2-0.8,0-1.1,0.2c-0.1,0.2,0.1,0.1,0.2,0.2c0.3-0.2,0.6,0.1,0.9-0.1c0,0,0,0,0,0c0,0,0,0,0,0
		c0.3,0,0.6,0,0.9,0c0.5,0,0.9,0,1.4,0c0.3,0,0.6,0,0.8,0c1.3-0.5,2.6-0.6,3.9-0.8c0.6,0,1.3-0.1,1.9-0.2c0.2,0,0.4-0.1,0.5-0.1
		c0.4,0.1,0.8,0.1,1.1,0c0.3,0,0.7-0.1,1-0.1c0.2,0.1,0.3,0.1,0.4-0.1c0.4-0.1,0.7-0.1,1.1-0.2c0.8,0.2,1.6-0.2,2.3-0.4
		c1.4-0.3,2.6-1,3.8-1.6c0.2,0.1,0.3,0.1,0.5,0c0.5,0,1-0.2,1.5-0.3c0.2-0.1,0.6-0.1,0.6-0.4C55.6,98.3,55.3,98.1,55,98z"/>
	<path class="st0" d="M31.4,103.1c0-0.1,0-0.2-0.1-0.2c-0.4,0.2-0.9,0-1.3,0.1c-0.2,0-0.4,0-0.6,0c-0.8-0.2-1.5,0.3-2.3,0.5
		c-0.3-0.1-0.5,0-0.7,0.1c-0.4-0.1-0.7,0-1,0.1c-0.7-0.1-1.5,0-2.2,0.3c0,0,0,0,0,0c-0.6,0-1.2,0.2-1.7,0.4c-0.3,0-0.5,0-0.8,0
		c-0.2,0.1-0.3,0.1-0.5,0.2c-0.4,0.1-0.9,0.3-0.8,0.8c0.1,0.5,0.6,0.3,0.9,0.4c0.1,0,0.2,0,0.3-0.1c0.1,0,0.2,0,0.3-0.1
		c0.3-0.1,0.6-0.2,0.9-0.2c0.3,0.1,0.6,0,0.9-0.1c0.4-0.1,0.9-0.1,1.3-0.1c0.3,0,0.6,0,0.9-0.2c0.2,0,0.4,0,0.5-0.1
		c0.3-0.2,0.7-0.1,1-0.3c0.3-0.2,0.6-0.4,1-0.4c0.4,0,0.7-0.1,1.1-0.2c0.7-0.1,1.5-0.1,2.2-0.4c0.2-0.1,0.7,0.1,0.7-0.4
		C31.3,103.2,31.4,103.2,31.4,103.1z"/>
	<path class="st0" d="M26.2,101.6c-0.2,0.1-0.2,0.3,0,0.4c0.1,0.1,0.2,0.2,0.4,0c0.1-0.1,0.3-0.3,0.1-0.5
		C26.6,101.4,26.4,101.5,26.2,101.6z"/>
	<path class="st0" d="M68.9,71.4c-0.3,0-0.5,0.1-0.5,0.4c0,0.1,0.2,0.1,0.4,0v0c0,0,0,0,0,0c0.2,0.2,0.4,0.2,0.6,0.2
		c0.5,0,1.1-0.1,1.6,0c1.3,0.3,2.3-0.3,3.3-0.7c0.2-0.3,0.1-0.6-0.2-0.8c-0.7,0-1.5-0.1-2.2,0.2c-0.5-0.1-0.9,0-1.4,0.3
		c-0.1,0-0.1,0-0.2,0C70.2,71,70,71,69.8,71.1c-0.3,0-0.5,0.1-0.7,0.3c0,0.1-0.1,0.1-0.2,0.2C68.9,71.5,68.9,71.5,68.9,71.4z"/>
	<path class="st0" d="M56.1,64.6c-0.2-0.5-0.4-0.9-0.3-1.4c0-0.2,0-0.4-0.3-0.4c-0.2-0.2-0.3-0.4-0.5-0.6c-0.2-0.2-0.2-0.5-0.5-0.7
		c0,0,0,0.1,0,0.1c0,0,0,0,0,0.1c-0.1,0-0.1,0-0.2,0c-0.2-0.4-0.6-0.6-1-0.8c-0.1-0.1-0.3-0.2-0.5-0.2c-0.1,0-0.2,0-0.4-0.1
		c-0.1,0-0.2,0-0.3,0c-0.9,0-1.6,0.3-2.1,1.2c-0.2,0.4-0.2,0.8-0.5,1.1c-0.3,0.1-0.6,0.1-0.9,0.2c-0.4,0-0.7-0.1-1.1-0.1
		c-1.6-0.2-3.2,0.1-4.9,0c-0.6,0-1.2,0.5-1.8,0.2c-0.1,0.1-0.1,0.2,0.1,0.3c1.5,0.6,3,0.5,4.5,0.5c0.4,0.2,0.7,0.1,1.1-0.1
		c0.6,0.1,1.2,0.1,1.7,0.2c0.5,0.3,1,0.2,1.6,0.2c0.3,0,0.7,0,0.9,0.2c0,0,0-0.1,0-0.1c0,0,0,0,0-0.1c0.1,0,0.2,0,0.3,0
		c0.6,0.1,1.3,0.2,1.9,0.4c1,0.3,2,0.1,3.1,0.3C56.2,65.1,56.1,64.8,56.1,64.6z"/>
	<path class="st0" d="M56.3,73.1L56.3,73.1c-0.1-0.6-0.5-0.5-0.9-0.4c-0.4-0.1-0.7,0-1,0.1c-0.3,0-0.7,0-1,0
		c-0.6,0.1-1.2-0.2-1.9-0.2c0,0,0,0,0,0c-0.8-0.3-1.6-0.2-2.4-0.3c-0.3,0-0.6,0-0.9,0.1c-0.2,0-0.4,0.1-0.6,0
		c-0.5-0.1-1-0.2-1.5,0.2c-0.2,0.1-0.4,0.2-0.3,0.5c0.1,0.2,0.2,0.4,0.5,0.4c0.6,0,1.1,0.2,1.7,0.1c1.1,0.2,2.2,0.2,3.3,0.2
		c0.4,0,0.8,0,1.2,0c0.3,0.1,0.5,0,0.8,0c0.2,0,0.4,0,0.6,0c0.2,0.1,0.4,0,0.6,0c0.5,0.1,1,0,1.2-0.5C56,73.3,56.2,73.2,56.3,73.1z"
		/>
	<path class="st0" d="M30.3,128c-0.2-0.2-0.3-0.3-0.6-0.3c-0.6-0.7-1.5-1.1-2-1.9c-0.2-0.3-0.5-0.6-0.7-0.9
		c-0.6-0.8-1.6-0.5-2.4-0.6c-0.4,0-0.7,0.2-0.6,0.7c0,0.8,0.5,1.2,1.1,1.4c0.6,0.3,1.2,0.5,1.9,0.8c0.8,0.5,1.8,0.7,2.5,1.4
		c0.3,0.3,0.8,0.2,1-0.1C30.8,128.3,30.5,128.1,30.3,128z"/>
	<path class="st0" d="M132.9,0.3c-0.1,1.5-0.5,2.9-0.4,4.4c-0.2,0.2-0.1,0.5-0.4,0.7c-0.2,0.3-0.4,0.7-0.6,1
		c-0.3,0.6-0.2,0.9,0.3,1.2c0.2,0.1,0.3,0.3,0.5,0.5c0.3,0.3,0.5,0.6,0.8,1c0-0.6,0.1-1,0.1-1.5c0.1-0.2,0.1-0.4,0.2-0.6
		c0-0.2,0-0.3,0.1-0.5c0.1-0.6,0.1-1.2,0.2-1.8c0-0.6,0-1.1-0.1-1.7c0-0.2,0.1-0.5,0.1-0.7c0-0.4,0-0.7,0.1-1.1c0.1-0.4,0-0.7,0-1.1
		c-0.1-0.4-0.4-0.2-0.6-0.3C132.9-0.1,132.9,0.2,132.9,0.3z"/>
	<path class="st0" d="M3.1,130c-0.3-0.3-0.4-0.7-0.9-0.9c-0.5-0.4-1.1-0.6-1.7-0.4c-0.2-0.1-0.4-0.1-0.5,0.1c-0.1,0.2,0,0.4,0.2,0.5
		c0.8,0.6,1.7,0.9,2.7,0.8C3.2,130.2,3.2,130.2,3.1,130z"/>
	<path class="st0" d="M2.8,129.4c0.1,0.2,0.3,0.3,0.4,0.5C3.2,129.7,3,129.5,2.8,129.4z"/>
	<path class="st0" d="M17.2,81.2c0-0.9-0.6-1.5-1.7-1.6c-0.1,0-0.1,0-0.2,0c-0.4-0.1-0.8-0.1-1.2,0.1c-0.3,0-0.5,0.2-0.6,0.5
		c-0.3,0.2-0.4,0.6-0.5,0.9c-0.2,0.6,0.1,1.1,0.5,1.4c1,0.8,1.4,0.6,2.6,0.1C16.8,82.4,17.2,81.9,17.2,81.2z"/>
	<path class="st0" d="M99.7,20.9c-0.6,0.4-1.2,0.5-1.9,0.2c-0.2-0.1-0.4-0.2-0.6-0.3c-0.3-0.1-0.7,0-0.9,0.3
		c-0.2,0.3,0.1,0.5,0.3,0.7c0.4,0.4,0.8,0.6,1.3,0.9c0.2,0.1,0.3,0.2,0.4,0.3c0.2,0.2,0.3,0.4,0.5,0.6c0.7,0.8,0.5,0.7,1.4,1
		c0.5,0.2,1,0.4,1.3,0.8c0.3,0.4,0.8,0.1,1.1,0.3c-0.1-0.3-0.1-0.5-0.3-0.7c-0.2-0.3-0.2-0.6-0.5-0.9c-0.2-0.2-0.1-0.4,0-0.6
		c0.3-0.4,0.3-0.8,0.2-1.3c-0.2-1.1-1-1.6-1.9-1.4v0v0C100,20.8,99.9,20.8,99.7,20.9z"/>
	<path class="st0" d="M112.1,125.1c0,0-0.1-0.1-0.1-0.1c-0.8-0.3-1.6-0.6-2.4-0.2c-0.2,0.1-0.3,0.2-0.5,0.4
		c-0.2,0.2-0.3,0.3-0.3,0.6c0.1,0.4,0,0.8,0.3,1.2c0.1,0.3,0.1,0.7,0.6,0.6c0.4-0.1,0.8,0.2,1.1,0.3c0.7,0.1,1-0.5,1.2-1
		C112.2,126.4,112.4,125.8,112.1,125.1z"/>
	<path class="st0" d="M65.6,46.5c0.3,0.4,0.6,0.8,1,1.2c0.2,0.2,0.3,0.5,0.7,0.6c1,0.3,1.7-0.1,2-1.2c-0.3-1-0.5-1.2-1.7-1.2
		c-0.4,0-0.8,0-1.2,0.1C66,46,66.1,46.7,65.6,46.5z"/>
	<path class="st0" d="M54.8,143c-0.2-0.4-0.2-1.1-0.8-1.3c-0.4-0.3-0.8-0.1-1.2-0.3c-0.2-0.1-0.4-0.2-0.6-0.4
		c-0.1,0.2,0.3,0.2,0.1,0.5c-0.2,0.2,0.2,1.2,0.5,1.3c0.5,0.2,1,0.3,1.5,0.5C54.5,143.3,54.9,143.2,54.8,143z"/>
	<path class="st0" d="M114.8,141.2c0.2-0.1,0.4-0.4,0.3-0.7c0.1-0.2,0.3-0.4,0.2-0.8c-0.2,0.1-0.3,0.2-0.4,0.3
		c-0.7,0.1-1.2,0.8-1.9,1c-0.2,0.1-0.4,0.3-0.6,0.5c-0.5,0.5-1.1,0.9-1.6,1.4c-0.1,0.1-0.2,0.3-0.4,0.4c-0.2,0.3-0.2,0.7,0,1
		c0.3,0.4,0.5-0.1,0.7-0.1c0.1,0,0.3-0.2,0.4-0.3c0.1-0.1,0.2-0.2,0.3-0.2c0.2-0.1,0.3-0.2,0.5-0.4
		C113.3,142.7,113.9,141.9,114.8,141.2z"/>
	<path class="st0" d="M89.8,112.5c-0.2,0.1-0.5,0.3-0.2,0.6c0.2,0.3,0.5,0.3,0.8,0.1c0.5-0.3,1-0.6,1.5-0.9c0.2-0.1,0.3-0.2,0.5-0.4
		c0.2-0.1,0.4-0.2,0.5-0.4c0.2-0.2,0.5-0.4,0.3-0.8c-0.1-0.2-0.3-0.4-0.6-0.3c-0.3,0-0.5,0.2-0.8,0.4C91,111.3,90.5,112,89.8,112.5z
		"/>
	<path class="st0" d="M116.6,139.1c0.4-0.2,0.4-0.3,0.4-0.8c-0.2,0.1-0.2,0.3-0.3,0.5C116.7,138.9,116.5,139,116.6,139.1z"/>
	<path class="st0" d="M117.2,138.2c0.2-0.3,0.3-0.4,0.5-0.6C117.5,137.7,117.2,137.8,117.2,138.2z"/>
	<path class="st0" d="M35.9,62.4c-0.7-0.3-1.4,0.2-2.1,0c-0.2,0-0.4,0.1-0.4,0.3c0,0.2,0.3,0.4,0.5,0.4c0.8-0.1,1.7,0.3,2.5-0.2
		C36.3,62.6,36,62.6,35.9,62.4z"/>
	<path class="st0" d="M55.6,34.2c-0.5,0.1-0.4,0.5-0.4,0.9c0,0.2,0.1,0.4,0.4,0.4c0.3,0,0.7,0.1,0.9-0.4
		C56.6,34.4,56.3,34.2,55.6,34.2z"/>
	<path class="st0" d="M2.2,96.1C2.1,96,1.1,96,0.9,96.2c-0.2,0.3-0.3,0.5,0,0.8c0.2,0.2,0.8,0.2,1.1-0.1C2.2,96.7,2.3,96.4,2.2,96.1
		z"/>
	<path class="st0" d="M73.3,63.1c-0.2,0.4,0.2,0.4,0.4,0.5c0.3,0.1,0.6,0.1,0.6-0.4c0-0.3-0.1-0.6-0.5-0.5
		C73.6,62.8,73.4,62.8,73.3,63.1C73.3,63,73.3,63,73.3,63.1z"/>
	<path class="st0" d="M95.6,54.2c0.1,0.1,0.2,0.2,0.1,0.4c0.1,0.1,0.2,0.2,0.3,0.2c0.2,0.2,0.5,0.1,0.7,0.2c0.1,0,0.1-0.1,0.2-0.1
		c0.2-0.2,0.1-0.5,0.2-0.7c-0.3-0.3-0.5-1-1.2-0.7c-0.1,0.1-0.1,0.1-0.2,0.2C95.6,53.8,95.6,54,95.6,54.2z"/>
	<path class="st0" d="M85.1,58.9c0.2-0.2,0.1-0.4,0-0.6C85,58,84.8,58,84.6,58.2c-0.3,0.2,0,0.3,0.1,0.5
		C84.8,58.8,84.9,59.1,85.1,58.9z"/>
</g>
<g>
	<path class="st2" d="M128.2,54.1c-0.5-0.6-1.7-1.2-3.6-1.6c-1.9-0.4-3.2-0.5-4-0.1c-0.1,0.1-0.4,0.2-0.8,0.4
		c-0.3,0.2-0.6,0.3-0.7,0.4c-0.6,0.2-1,0-1.5-0.5c-0.7-0.8-0.9-2.6-0.7-5.2c0.3-2.9,1.3-4.3,2.9-4.2c3.7,0.1,6.6,0.4,8.6,0.9
		c3.8,0.8,8,2.9,12.5,6.2c4,2.9,7.4,6.1,10.2,9.6c3.2,4,5.4,8.2,6.4,12.7c1.2,5.3,0.6,9.9-2,13.6c-2,2.9-5.8,5.2-11.5,6.9
		c-3.2,1-7.8,1.8-13.8,2.6c-14.1,1.9-23.5,3-28.4,3.3c-9.3,0.6-14.1,0.8-14.4,0.7c-1-0.6-1.5-1.5-1.5-2.7c0.1-1.2,0.8-2,2.1-2.4
		c0.7-0.2,1.9-0.3,3.6-0.4c2.1-0.1,3.5-0.2,3.9-0.2c1.3-0.2,3.7-0.6,7.1-1.2c3.1-0.5,5.4-0.9,7.1-1c0.9-0.1,2.1-0.3,3.5-0.7
		c1.7-0.4,2.9-0.7,3.4-0.8c2-0.4,3.2-0.7,3.4-1c0.2-0.3,0.4-1.5,0.4-3.7c0-3.8,1-9.4,2.9-16.9c0.1-0.6,1-3.2,2.6-7.8
		C127.5,56.8,128.2,54.6,128.2,54.1z M123.1,89c0.6,0.2,4.2-0.6,10.7-2.4c6-1.6,9.9-2.7,11.7-3.4c2.9-1,4.6-1.8,5.1-2.4
		c1-1,1-2.6,0-4.9c-1.9-4.2-3.7-7.2-5.6-9.1c-4.6-4.6-7.2-7.1-7.8-7.5c-1.2-0.8-2-0.9-2.5-0.4c-0.1,0.2-0.5,1.2-1.2,3
		c-0.2,0.7-1.1,2.8-2.7,6.4c-2,4.7-3.4,8-4.2,9.9C124.5,83.1,123.4,86.7,123.1,89z"/>
	<path class="st2" d="M179.6,86.6c-1.1,4.1-2.9,7.5-5.4,10.2c-3.5,3.8-7.3,4.3-11.2,1.5c-3.7-2.6-5.2-7.2-4.6-13.8
		c0.5-5.1,2-10.1,4.4-15c1-2.1,2.2-4.1,3.6-6.1c2.2-3.1,3.7-4.4,4.6-3.6c0.3,0.2,0.8,1,1.5,2.2c0.7,1.3,1.5,2.3,2.4,3.1
		c1,0.9,1.5,2,1.5,3.3c0,0.9-0.3,2.1-1,3.7c-0.7,1.7-3.3,5.5-7.8,11.4c-0.3,0.3-0.7,0.8-1.2,1.3c-0.6,0.6-1,1-1.2,1.3
		c-0.8,1.1-1.2,2.1-1.1,3.3c0.3,4.1,1.1,6.5,2.5,7.1c1.4,0.4,3.6-0.5,6.7-2.8c3.1-2.3,4.5-4.2,4.4-5.8L179.6,86.6z M164.9,84.4
		c0.4-0.2,2.1-2.7,5.1-7.5c2.4-3.9,3.6-6.9,3.7-9c-1.9,0.8-3.8,3.3-5.7,7.3C166.3,78.8,165.2,81.9,164.9,84.4z"/>
	<path class="st2" d="M199.3,65.4c-0.4,1.1-1,2.3-1.7,3.7c-1.1,2.1-1.7,3.2-1.8,3.5c-0.8,1.7-2.6,5.6-5.3,11.9
		c-2.6,6-4.1,9.4-4.4,10.1c-1.8,3.6-3.5,5.4-5.1,5.4c-2.5-0.1-4-2.3-4.6-6.7c-0.2-1.2-0.2-4.5-0.1-9.9c0-3,0.7-7.6,1.9-13.6
		c1.1-5.2,1.6-8.1,1.3-8.5c-0.4-0.9-0.6-1.3-0.6-1.4c0.1-0.4,0.7-0.6,2-0.7c4.5-0.3,7.2,0.3,8.3,1.7c-3.6,8.4-5.9,16.7-6.9,24.8
		c-0.1,0.8-0.1,2.4-0.2,5c-0.1,2.3-0.1,3.7-0.3,4.3c1.1-1.9,2.8-5.7,5.1-11.5c2.2-5.7,3.5-9.4,3.8-11.2c0.1-0.3,0.1-0.9,0.2-1.8
		c0.1-0.9,0.2-1.7,0.2-2.2c0.3-1.9,1-3.1,1.9-3.8c0.7-0.5,2-0.9,3.7-1.2C199.2,62.8,200,63.5,199.3,65.4z"/>
	<path class="st2" d="M207.7,83.7c0.1,0.2,0.3,0.4,0.6,0.5c0.3,0.1,0.4,0.3,0.3,0.5c-1.8,4.8-3.9,8.8-6.4,11.9
		c-2.5,3.1-4.3,4.1-5.4,3c-1.8-1.9-2.6-4.7-2.5-8.6c0.2-4.8,1.7-12.4,4.6-22.8c0.4-1.6,0.8-3.3,1.2-5.2c0.3-1.5,0.5-2.4,0.7-2.7
		c0.2-0.5,0.6-0.8,1.1-0.9c0.4-0.1,1.2,0,2.4,0.2c0.4,0,1.3,0,2.7,0c1,0,1.6,0.1,2,0.3c1,0.7,0.4,3-1.7,7.1
		c-2.6,5.1-5.1,14.4-7.7,27.8c-0.1,0.3,0.1,0.4,0.5,0.3c0.5-0.1,1.1-0.4,1.7-1C203.7,92.2,205.7,88.7,207.7,83.7z M204.4,54.6
		c0.3-2.9,1-7.2,2.2-12.9c0.3-1.4,0.2-2.3-0.3-2.9c-0.3-0.3-0.5-0.5-0.4-0.4c-0.1-0.2-0.1-0.4,0.1-0.7l7.7,3.3l-4.5,14l-5.2-0.4
		L204.4,54.6z"/>
	<path class="st2" d="M209.4,100c-2.2-3.1-3.8-7.4-4.7-12.8c-1-5.5-0.7-9.6,0.6-12.3c0.4-0.9,1.1-1.1,1.9-0.6c0.5,0.3,1.1,0.8,2,1.7
		c0.4,0.5,0.6,2.5,0.3,6c-0.3,4.2-0.4,6.6-0.3,7.1c0.5,4.1,1.6,6.8,3.2,8c0.7-0.2,1.7-1.4,2.9-3.4c1-1.7,1.7-3.2,2-4.3
		c1-3.1,0.6-6.3-1.2-9.6c-0.4-0.7-1.2-2-2.4-3.6c-1.2-1.7-2.1-3.1-2.7-4c-1.8-3.3-2-6-0.4-8.2c0.4-0.7,1.7-0.9,3.7-0.6
		c2,0.3,3.2,0.7,3.8,1.3c0.4-3.2,0.7-5,0.8-5.5c0-0.2,0-0.6-0.1-1.2c0-0.3,0.1-0.5,0.4-0.6c0.8-0.2,1.7-0.2,2.6,0.2
		c2.1,0.9,3.3,1.6,3.6,2.2c0.4,0.8,0,2.1-1.2,4.1c-0.3,0.6-1,2.2-1.9,4.8c-0.8,2.4-1.3,3.7-1.5,3.8c-0.7-0.1-1.3-1.2-1.8-3.3
		l-0.9-3.7c-1.2,0.5-2,1.1-2.4,1.7c-0.5,0.7-0.5,1.6-0.2,2.7c0.3,0.8,0.9,2,1.9,3.6c2.7,4.4,4.5,7.9,5.2,10.4c0.7,2.7,0.6,5-0.5,6.8
		c-0.6,1-2.2,2.5-4.6,4.5c-4.4,3.6-6.7,5.4-6.7,5.4S210.5,100.4,209.4,100z"/>
	<path d="M251.9,65.4c-1,1.2-1.7,2.3-1.9,3.3c-2-1.6-3.1-2.7-3.5-3.4c-0.4-0.7-0.6-1.5-0.6-2.5c0.1-1,0.4-1.7,1-2.2
		c2-1.7,6.1-4.9,12.3-9.4c0.6-0.4,2-1.3,4.2-2.6c2-1.1,3.2-2,3.8-2.5c0,0,0.4-0.8,1.2-2.2c0.5-0.9,1.2-1.3,2.1-1.2
		c0.9,0.2,1.6,0.8,2.1,1.9c0.4,1,0.5,1.9,0.1,2.7c-0.5,1.1-1.6,2.7-3.2,4.8c-1.6,2.1-2.6,3.7-3.2,4.8c-0.2,0.4-0.7,1.3-1.4,2.7
		c-0.6,1-1,2-1.3,2.8c-1.4,3.3-2.1,5.1-1.9,5.5c0.4-0.4,1.1-1.3,2-2.7c1.1-1.5,1.8-2.5,2.1-2.9c1.3-1.7,2.9-3.5,4.8-5.4
		c1.4-1.4,2.9-2.7,4.6-4c0.8-0.5,1.2-1.6,1.2-3.3c0-1.5-0.1-2.5-0.4-2.9c1-0.2,2.4-0.2,4,0.1c1.8,0.3,3,0.7,3.6,1.3
		c0.7,0.7,0.6,4.2-0.3,10.7c-0.8,6.2-1.5,9.8-2,10.7c-0.4,0.7-2,2-4.9,3.9c-2.7,1.8-4.5,2.9-5.4,3.3c-0.2,0.1-1,0.5-2.3,1.2
		c-1.5,0.8-2.7,1.4-3.6,1.9c-3.2,1.6-5,2-5.2,1.1l4.5-3.8c3-2.6,5.2-4.7,6.5-6.5c1.3-1.8,2.6-4.8,3.8-9.1c0.9-3.1,1.4-5.5,1.6-7.1
		c-1.7,1-4.3,3.4-7.6,7.4c-2.8,3.3-4.9,6.2-6.4,8.5c-1.9,3-3.8,11.1-5.9,24.4l7,2.1c0.6,0.7,0.8,1.4,0.6,2c-0.1,0.3-0.3,0.6-0.6,0.6
		c-0.2,0.1-0.5,0.1-1,0c-4-0.3-7.2-0.4-9.5-0.2c-0.2,0-1,0.1-2.2,0.4c-1.2,0.2-1.8,0.3-1.9,0.3c-0.3-0.8-0.2-2,0.4-3.6
		c0.7-2,2.2-2.8,4.2-2.2c0-0.1,0-1.1,0.1-3.1c0.1-2.2,0.1-4.2,0.2-6c0.3-5.9,0.7-10.2,1.2-12.7c0.8-3.8,3.1-9.5,6.7-17.1L251.9,65.4
		z"/>
	<path d="M299.1,86.6c-1.1,4.1-2.9,7.5-5.4,10.2c-3.5,3.8-7.3,4.3-11.2,1.5c-3.7-2.6-5.2-7.2-4.6-13.8c0.5-5.1,2-10.1,4.4-15
		c1-2.1,2.2-4.1,3.6-6.1c2.2-3.1,3.7-4.4,4.6-3.6c0.3,0.2,0.8,1,1.5,2.2c0.7,1.3,1.5,2.3,2.4,3.1c1,0.9,1.5,2,1.5,3.3
		c0,0.9-0.3,2.1-1,3.7c-0.7,1.7-3.3,5.5-7.8,11.4c-0.3,0.3-0.7,0.8-1.2,1.3c-0.6,0.6-1,1-1.2,1.3c-0.8,1.1-1.2,2.1-1.1,3.3
		c0.3,4.1,1.1,6.5,2.5,7.1c1.4,0.4,3.6-0.5,6.7-2.8c3.1-2.3,4.5-4.2,4.4-5.8L299.1,86.6z M284.4,84.4c0.4-0.2,2.1-2.7,5.1-7.5
		c2.4-3.9,3.6-6.9,3.7-9c-1.9,0.8-3.8,3.3-5.7,7.3C285.7,78.8,284.7,81.9,284.4,84.4z"/>
	<path d="M309.1,83.7c0.1,0.2,0.3,0.4,0.6,0.5c0.3,0.1,0.4,0.3,0.3,0.5c-1.8,4.8-3.9,8.8-6.4,11.9c-2.5,3.1-4.3,4.1-5.4,3
		c-1.8-1.9-2.6-4.7-2.5-8.6c0.2-4.8,1.7-12.4,4.6-22.8c0.4-1.6,0.8-3.3,1.2-5.2c0.3-1.5,0.5-2.4,0.7-2.7c0.2-0.5,0.6-0.8,1.1-0.9
		c0.4-0.1,1.2,0,2.4,0.2c0.4,0,1.3,0,2.7,0c1,0,1.6,0.1,2,0.3c1,0.7,0.4,3-1.7,7.1c-2.6,5.1-5.1,14.4-7.7,27.8
		c-0.1,0.3,0.1,0.4,0.5,0.3c0.5-0.1,1.1-0.4,1.7-1C305.1,92.2,307.1,88.7,309.1,83.7z M305.8,54.6c0.3-2.9,1-7.2,2.2-12.9
		c0.3-1.4,0.2-2.3-0.3-2.9c-0.3-0.3-0.5-0.5-0.4-0.4c-0.1-0.2-0.1-0.4,0.1-0.7l7.7,3.3l-4.5,14l-5.2-0.4L305.8,54.6z"/>
	<path d="M316.1,76.7c2.3-1.8,5.7-6.1,10.2-12.8c0.9-1.3,2.3-1.9,4.1-1.9c1.7,0.1,2.9,0.6,3.5,1.5c0.8,1.2,0.3,4.3-1.5,9
		c-7.2,18.3-9.3,28.3-6.3,29.9l5.6-6.3c1-0.6,1.5-0.5,1.5,0.3c0,0.7-0.4,1.7-1.2,3.2c-1.8,3.4-3.4,5.6-4.7,6.6c-1.4,1-3.1,0.9-5-0.4
		c-1.7-1.1-2.8-2.4-3.1-3.9c-1.4-5.6,0.6-16.3,6.1-32.2c-1.3,0.6-3.6,4.4-7,11.4c-3.8,7.7-5.5,13.7-5.3,17.8
		c0.1,1.7-0.9,1.9-2.9,0.7c-1.7-1-3.2-2.2-4.2-3.6c0-0.1,0.4-1.8,1.2-5c1-4.2,1.8-7.7,2.4-10.6c2.2-10.5,3-17.2,2.3-20
		c-0.2-0.8,0.8-1,3-0.7c1.8,0.3,3.3,0.7,4.5,1.2c1.1,0.4,1.4,1.3,1,2.7c-0.1,0.3-0.3,0.9-0.7,1.9c-0.3,0.9-0.6,1.6-0.7,2.2
		C317.6,73,316.7,75.9,316.1,76.7z"/>
	<path d="M349.9,79c0.7,1.3-1.6,6.9-6.9,16.6c-1,1.9-1.8,3.1-2.5,3.8c-1.1,1-2.3,1.4-3.6,1.2c-2-0.4-3.2-1.1-3.5-2.1
		c0,0.1-0.1-1.3-0.2-4.2c-0.3-5,0.9-11.7,3.4-20.2c3.5-11.7,5.4-18.4,5.7-20l-17.4,2.5l0.1-0.6c-0.7-0.7-0.7-1.7-0.1-2.8
		c0.4-1.6,0.9-2.9,1.6-4c0.5-0.8,2.2-1.3,5.2-1.5c1-0.1,2.1-0.1,3.5-0.1c1.7,0,2.6,0,2.6,0c1.5-0.1,3.8-0.3,6.8-0.6
		c1.1-3.2,2-6.2,2.7-8.9c0.3-1.5,0.4-2.9,0.3-4.1c-0.1-1.2-0.2-1.8-0.2-1.7c0.1-0.2,0.6-0.2,1.5,0c2.7,0.6,4.5,1,5.5,1.1
		c1.1,0.2,1.7,0.9,1.7,2.1c0,0.9-0.4,2.2-1.2,4c-2.3,5.3-3.5,8.1-3.6,8.4l18.4-1.5l0,0.6c0.4,2.4-2.4,4.3-8.4,5.5
		c-3.7,0.8-7.9,1.2-12.4,1.3c-0.9,1.2-2.8,6.9-5.5,17.2c-2.7,10.2-4.3,17.4-4.9,21.7c-0.3,2.8,1.1,1.6,4.4-3.4
		c1.6-2.5,3.3-5.3,5.1-8.4c0.3-0.7,0.7-1.2,1.3-1.5L349.9,79z"/>
	<path d="M365.7,81.9c1.7-2.2,3.1-4.6,4-7.2c1.9-5.2,3.1-8.2,3.6-8.9c3-0.9,4.3,0.4,3.8,3.8c-0.2,1.1-0.5,2.6-1.1,4.4
		c-0.8,2.3-1.1,3.4-1.1,3.4c-2.6,9.7-3.5,15.5-2.9,17.4l3.3-7.3c0.7-1.6,1.8-2.7,3.3-3.5l0.2-0.1c0.2,1.1-0.5,3.9-2.1,8.2
		c-1.7,4.4-3.1,7.1-4.2,8.1c-0.9,0.8-2.1,1-3.5,0.6c-1.4-0.4-2.3-1.1-2.6-2.3c-0.8-2.7-0.8-6,0.1-9.9c0.2-0.9,0.4-2,0.8-3.1
		c0.2-0.6,0.2-0.7,0-0.4c-4.3,7.9-7.9,12.9-10.7,14.9c-1,0.7-2.2,0.8-3.7,0.3c-1.3-0.4-2.5-1.2-3.4-2.1c-1.3-1.4-1.4-5.4-0.1-11.9
		c0.3-1.3,1.3-5.4,3.2-12.5c1.1-4,1.8-6.7,2.3-8.2c1-3,1.3-4.9,0.8-5.8c-0.7-1.3-1-1.9-1-1.7c4.8,0.2,7.4,2,7.8,5.2
		c0.2,1.7-0.4,5.1-1.9,10.2c-3.8,12.7-5.5,19.9-5.2,21.6C355.5,95,358.9,90.6,365.7,81.9z"/>
	<path d="M392.5,86.4l2.1-1.2c1,0.6,0.5,2.9-1.4,7.1c-1.9,4.1-3.4,6.5-4.6,7.2c-1.7,1-3.2,0.9-4.4-0.3c-1.1-1.1-1.9-2.9-2.4-5.6
		c-1.1-5.3-1.1-10.5,0.2-15.7c0.3-1.3,1.2-3.7,2.5-7.4c-2.5-1.9-3.8-3.5-4-4.9c0-0.3,0-1,0.2-1.9c0.1-0.8,0.1-1.6,0-2.2
		c-0.2-1-0.2-1.5-0.1-1.7c0.2-0.2,1-0.4,2.3-0.4c3-0.1,4.8,0.2,5.6,0.7c0.3,0.8,0.1,1.9-0.6,3.5c-0.8,1.8-1.2,3-1.2,3.6
		c0.1,1.2,1.9,2.6,5.6,4.2c-1.4,3.4-2.9,8.2-4.3,14.4c-1.5,6.3-1.9,9.6-1.2,10L392.5,86.4z"/>
	<path d="M415,86.6c-1.1,4.1-2.9,7.5-5.4,10.2c-3.5,3.8-7.3,4.3-11.2,1.5c-3.7-2.6-5.2-7.2-4.6-13.8c0.5-5.1,2-10.1,4.4-15
		c1-2.1,2.2-4.1,3.6-6.1c2.2-3.1,3.7-4.4,4.6-3.6c0.3,0.2,0.8,1,1.5,2.2c0.7,1.3,1.5,2.3,2.4,3.1c1,0.9,1.5,2,1.5,3.3
		c0,0.9-0.3,2.1-1,3.7c-0.7,1.7-3.3,5.5-7.8,11.4c-0.3,0.3-0.7,0.8-1.2,1.3c-0.6,0.6-1,1-1.2,1.3c-0.8,1.1-1.2,2.1-1.1,3.3
		c0.3,4.1,1.1,6.5,2.5,7.1c1.4,0.4,3.6-0.5,6.7-2.8c3.1-2.3,4.5-4.2,4.4-5.8L415,86.6z M400.2,84.4c0.4-0.2,2.1-2.7,5.1-7.5
		c2.4-3.9,3.6-6.9,3.7-9c-1.9,0.8-3.8,3.3-5.7,7.3C401.6,78.8,400.6,81.9,400.2,84.4z"/>
</g>
<path class="st1" d="M330.2,124.4c0,0,87-12.2,84.7-6.1"/>
</svg>
